<svg width="693" height="720" viewBox="0 0 693 720" fill="none" xmlns="http://www.w3.org/2000/svg">
<rect y="185.733" width="448" height="533.659" rx="32" fill="#EDECFF"/>
<path d="M301.243 28.2354L301.53 28.5656C301.451 28.4422 301.355 28.331 301.243 28.2354Z" fill="#FFB6AD"/>
<path d="M301.243 28.2351C301.187 28.1874 301.119 28.1562 301.046 28.145L301.243 28.2351Z" fill="#FFB6AD"/>
<path d="M280.964 23.7016L284.402 26.9741C284.402 26.9741 288.518 22.0052 299.645 26.824C306.943 19.2131 303.083 14.8146 299.464 12.3527C296.283 10.161 285.321 19.7685 280.964 23.7766V23.7016Z" fill="#FFB6AD"/>
<path d="M297.006 22.2003C295.989 21.1351 295.047 20.0015 294.186 18.8077C293.629 17.7338 292.889 16.7638 292 15.9404C290.96 15.2198 289.98 16.9012 291.005 17.6217C291.476 18.1055 291.863 18.6635 292.151 19.273C292.498 19.7984 292.875 20.3088 293.267 20.7742C294.001 21.7359 294.786 22.6579 295.619 23.5364C296.478 24.4971 297.865 23.116 297.006 22.2003Z" fill="#FF9C90"/>
<path d="M301.529 28.5655L301.243 28.2352L301.047 28.1451C299.708 28.284 298.395 28.6022 297.141 29.0909C298.091 28.2802 298.921 27.4996 299.644 26.749C288.517 21.9303 284.401 26.8992 284.401 26.8992L280.963 23.7017L279.169 25.383L288.698 41.8959C300.7 30.6971 301.966 29.4061 301.529 28.5655Z" fill="#FF9C90"/>
<path d="M278.943 24.9775L279.169 25.3829L287.552 39.8692L288.698 41.8358C285.788 44.6279 282.351 48.4409 278.596 52.8694L261.423 35.741C271.736 28.7905 278.943 24.9775 278.943 24.9775Z" fill="#FFE7E0"/>
<path d="M191.282 114.898C191.026 115.543 190.8 116.189 190.589 116.804C190.468 117.15 190.348 117.51 190.242 117.855C189.701 119.556 189.278 121.291 188.976 123.049L188.84 124.01C188.701 125.186 188.646 126.37 188.674 127.553C188.658 127.823 188.658 128.094 188.674 128.364C188.69 128.766 188.731 129.167 188.795 129.564C188.824 129.862 188.869 130.158 188.93 130.45C188.93 130.765 189.066 131.096 189.141 131.426C189.217 131.756 189.262 131.936 189.337 132.176L189.428 132.432C189.518 132.732 189.609 133.017 189.714 133.302C189.805 133.558 189.925 133.828 190.031 134.083C190.085 134.179 190.131 134.279 190.167 134.383C190.257 134.593 190.363 134.804 190.468 134.999V135.104C190.619 135.404 190.785 135.689 190.951 135.989L191.463 136.83L191.795 137.311L192.142 137.806L192.262 137.956C192.428 138.196 192.609 138.421 192.79 138.662L193.001 138.902C193.152 139.082 193.303 139.277 193.469 139.442C193.561 139.564 193.662 139.679 193.77 139.787C193.981 140.028 194.192 140.253 194.419 140.478C194.645 140.703 195.022 141.093 195.353 141.394C195.685 141.694 195.972 141.979 196.303 142.264C197.946 143.684 199.679 144.998 201.49 146.197L202.319 146.753C202.862 147.098 203.45 147.473 204.053 147.834C204.37 148.044 204.717 148.239 205.063 148.449L207.657 149.95C210.327 143.151 210.089 135.559 206.996 128.939C203.903 122.319 198.226 117.246 191.282 114.898V114.898Z" fill="#A76C50"/>
<path d="M190.317 117.856C190.422 117.51 190.543 117.15 190.664 116.805C190.468 117.165 190.317 117.51 190.317 117.856Z" fill="#00727F"/>
<path d="M188.809 123.995L188.945 123.034L188.809 123.995Z" fill="#00727F"/>
<path d="M233.801 112.616C233.801 112.616 259.855 75.0871 278.597 52.8696L261.423 35.7412C244.265 47.3003 218.422 67.5812 202.47 93.5365C198.113 100.313 194.369 107.462 191.282 114.898C198.231 117.228 203.921 122.286 207.031 128.898C210.14 135.509 210.399 143.099 207.747 149.906C211.245 151.887 215.286 153.929 219.704 156.106C223.096 157.772 226.775 159.528 230.74 161.405C241.913 166.839 256.764 169.796 259.629 170.607L289.076 130.21L299.464 118.021C283.904 115.018 262.69 112.752 233.801 112.616Z" fill="#B57A60"/>
<path d="M289.075 130.21L299.464 118.02C297.127 117.57 294.639 117.135 292.045 116.714L291.653 116.804L236.515 163.896C244.085 166.616 251.82 168.857 259.674 170.607L289.075 130.21Z" fill="#A76C50"/>
<path d="M215.949 113.937C214.079 114.117 214.109 111.19 215.949 111.025C222.583 110.395 229.227 109.949 235.881 109.689L233.831 112.691L215.949 113.937Z" fill="#A76C50"/>
<ellipse cx="279.772" cy="42.0909" rx="2.29178" ry="2.28179" fill="#2E3257"/>
<path d="M340.837 258.636C304.319 288.899 255.889 307.604 255.889 307.604L230.921 280.328C297.926 289.56 338.681 260.227 340.837 258.636Z" fill="#DA9C80"/>
<path d="M380.294 198.964C379.133 207.717 376.221 216.15 371.73 223.764L371.504 223.643L208.561 255.784C208.937 253.172 218.904 189.462 297.714 117.57C297.714 117.57 387.833 135.509 380.294 198.964Z" fill="#DA9C80"/>
<path d="M208.546 255.874L209.918 257.375C208.41 257.06 207.083 256.729 205.741 256.339L208.561 255.784C208.552 255.813 208.547 255.843 208.546 255.874Z" fill="#DA9C80"/>
<path d="M371.534 223.628C371.534 223.628 262.297 268.409 209.917 257.375L208.545 255.874C208.542 255.844 208.542 255.814 208.545 255.784L371.534 223.628Z" fill="#DA9C80"/>
<path d="M371.535 223.628L371.761 223.749C364.494 236.509 353.396 248.203 340.927 258.546H340.837C338.681 260.137 297.926 289.47 230.921 280.238L209.918 257.375C262.298 268.409 371.535 223.628 371.535 223.628Z" fill="#B57A60"/>
<path d="M234.751 192.569C248.97 206.213 266.657 215.737 285.909 220.115C288.367 220.686 289.407 216.933 286.95 216.377C268.037 212.072 250.694 202.63 236.847 189.101C236.138 190.302 235.429 191.443 234.751 192.569Z" fill="#FF3D0A"/>
<path d="M231.267 207.686C235.617 210.973 240.272 213.838 245.169 216.242C255.045 221.181 265.599 224.634 276.093 228.012C278.491 228.792 279.516 225.009 277.134 224.259C267.888 221.499 258.824 218.17 249.994 214.291C246.082 212.497 242.294 210.446 238.656 208.151C235.361 206.302 232.277 204.102 229.458 201.591C228.825 202.717 228.222 203.828 227.634 204.923C228.885 205.929 230.152 206.83 231.267 207.686Z" fill="#FF3D0A"/>
<path d="M307.395 210.763C309.898 211.004 309.883 207.101 307.395 206.875C283.639 204.595 261.594 193.567 245.577 175.951L243.3 179.224C260.023 197.253 282.852 208.486 307.395 210.763Z" fill="#FF3D0A"/>
<path fill-rule="evenodd" clip-rule="evenodd" d="M116.708 627.625C87.1259 659.555 152.276 675.843 173.626 673.981C197.675 671.82 220.367 662.257 243.149 654.466C280.361 641.736 314.014 645.609 352.431 646.209C387.653 646.75 427.035 642.637 452.381 615.51C459.302 608.095 465.137 598.262 463.086 588.354C460.839 577.516 449.833 570.535 438.962 568.118C408.807 561.408 374.746 576.96 346.416 585.922C302.137 599.899 256.385 608.734 210.069 612.253C190.86 613.754 172.827 604.912 153.558 608.29C142.069 610.316 125.845 617.747 116.708 627.625Z" fill="#FF9637"/>
<path d="M569.745 194.325C564.136 206.98 562.206 212.925 553.295 211.814H553.145V211.604C557.668 209.472 560.005 203.407 564.362 193.59C570.393 180.079 574.796 183.607 588.034 172.018C598.483 162.876 600.684 158.507 599.372 155.505C599.789 156.036 600.242 156.538 600.729 157.006C604.092 159.723 604.092 163.431 591.683 174.24C579.274 185.048 575.339 181.67 569.745 194.325Z" fill="#211E21"/>
<path d="M242.274 636.917C238.897 643.402 225.448 650.202 206.239 650.773C173.415 651.749 168.545 640.94 162.514 630.612C156.483 620.284 145.732 621.77 136.595 608.245C131.122 600.153 131.333 594.734 134.499 590.23C135.291 593.614 136.758 596.804 138.812 599.613C148.416 613.829 159.92 612.283 166.087 623.136C172.254 633.99 177.516 645.384 212.059 644.348C224.995 643.958 235.55 640.865 242.274 636.917Z" fill="#211E21"/>
<path d="M180.049 554.848L200.871 582.515C196.07 587.108 192.427 592.766 190.242 599.028L175.164 558.961C178.134 556.259 180.049 554.848 180.049 554.848Z" fill="#320D18"/>
<path d="M232.67 625.944C241.988 627.88 244.733 632.309 242.29 636.917C235.55 640.865 224.996 643.958 212.12 644.318C177.577 645.354 172.375 633.975 166.148 623.107C159.921 612.238 148.477 613.799 138.873 599.583C136.808 596.777 135.331 593.586 134.53 590.201C137.188 586.922 140.403 584.132 144.029 581.959C153.905 575.324 163.283 570.415 169.45 564.275C171.561 562.174 173.461 560.402 175.044 559.006L190.121 599.073C189.045 602.268 188.535 605.626 188.614 608.996C189.232 624.217 210.205 621.275 232.67 625.944Z" fill="#6A3445"/>
<path d="M599.403 155.49C600.715 158.387 598.513 162.801 588.064 172.003C574.826 183.592 570.409 179.989 564.393 193.575C560.035 203.437 557.774 209.502 553.175 211.589V211.799C544.204 210.748 529.82 214.906 523.276 224.694L498.036 206.935C498.036 206.935 513.717 190.242 558.919 170.907C594.668 155.58 597.94 154.109 599.403 155.49Z" fill="#6A3445"/>
<ellipse cx="529.895" cy="200.06" rx="8.21732" ry="8.18141" fill="white"/>
<ellipse cx="169.887" cy="585.096" rx="8.21729" ry="8.1814" fill="white"/>
<path d="M192.714 608.11C187.543 604.702 181.662 606.924 177.32 610.557C175.812 611.757 177.953 613.814 179.386 612.613C182.763 609.806 187.211 607.974 191.237 610.632C192.805 611.667 194.282 609.145 192.714 608.11Z" fill="white"/>
<path d="M193.212 614.219C189.59 614.352 186.167 615.9 183.683 618.528C182.386 619.894 184.452 621.95 185.749 620.584C187.697 618.477 190.412 617.233 193.288 617.132C195.082 617.042 195.097 614.129 193.212 614.219Z" fill="white"/>
<path d="M198.881 617.372C196.046 619.097 193.753 621.577 192.262 624.532C191.417 626.199 193.95 627.685 194.795 626.034C196.033 623.519 197.962 621.405 200.358 619.939C201.957 618.903 200.494 616.381 198.881 617.372Z" fill="white"/>
<path d="M554.366 167.77C551.043 171.824 550.451 177.454 552.858 182.106C553.688 183.787 556.221 182.301 555.376 180.605C553.609 177.09 554.05 172.873 556.507 169.796C557.608 168.37 555.557 166.298 554.366 167.77Z" fill="white"/>
<path d="M563.291 164.001C561.256 164.602 560.653 168.19 560.351 170.006C560.004 172.108 559.808 175.26 561.301 177.002C561.68 177.368 562.223 177.51 562.733 177.377H562.884C563.438 177.247 563.859 176.797 563.948 176.237C564.037 175.677 563.778 175.119 563.291 174.825C562.718 173.879 563.095 171.327 563.291 170.471C563.414 169.788 563.59 169.116 563.819 168.46C563.912 168.122 564.028 167.791 564.166 167.469C564.339 167.214 564.486 166.943 564.603 166.658C565.201 166.23 565.4 165.435 565.076 164.778C564.751 164.12 563.997 163.792 563.291 164.001Z" fill="white"/>
<path d="M573.363 162.53C574.69 161.179 572.61 159.123 571.298 160.459C568.071 163.746 567.936 169.301 568.87 173.519C569.092 174.102 569.654 174.488 570.28 174.488C570.907 174.488 571.468 174.102 571.69 173.519C571.69 173.309 571.795 173.084 571.841 172.858C571.959 172.378 571.816 171.871 571.464 171.522C571.026 168.505 571.238 164.707 573.363 162.53Z" fill="white"/>
<path d="M183.608 527.332L221.829 577.906C211.441 584.076 204.716 587.664 204.716 587.664L176.913 550.69C177.079 542.458 179.385 534.411 183.608 527.332Z" fill="#349D7B"/>
<path d="M367.796 414.938C370.987 414.933 374.153 415.497 377.144 416.604C376.375 436.33 369.108 452.633 358.493 466.804C346.292 462.304 339.078 449.751 341.366 436.999C343.653 424.246 354.785 414.955 367.796 414.938Z" fill="#349D7B"/>
<path d="M354.919 347.941C354.301 347.851 331.715 344.938 292.362 388.187C285.699 381.358 278.455 375.114 270.711 369.528C271.585 369.137 272.46 368.717 273.319 368.267C273.696 368.086 274.058 367.891 274.42 367.681C274.782 367.471 275.385 367.171 275.928 366.901C285.155 361.676 291.714 357.608 297.293 354.291L298.514 353.555C300.926 352.144 303.173 350.853 305.405 349.667C306.324 349.172 307.244 348.691 308.179 348.241C311.113 346.778 314.134 345.495 317.225 344.398L318.16 344.053C320.196 343.347 322.367 342.657 324.764 341.966L326.181 341.576C327.493 341.215 328.88 340.855 330.358 340.48L331.549 340.195L335.967 339.174L338.002 338.738C340.249 338.243 342.646 337.748 345.24 337.237C348.809 340.482 352.052 344.067 354.919 347.941Z" fill="#349D7B"/>
<path d="M376.45 400.887C377.114 406.098 377.346 411.355 377.144 416.604C368.134 413.287 358.032 415.007 350.642 421.117C343.252 427.227 339.697 436.798 341.317 446.224C342.936 455.651 349.483 463.502 358.493 466.819C341.214 490.027 315.054 507.891 293.659 526.866C269.535 548.243 240.043 567.067 221.784 577.906L183.607 527.331C198.172 501.346 234.132 477.792 266.926 464.597C309.37 447.574 303.625 421.318 303.113 406.727C302.932 401.142 298.167 394.402 292.317 388.187C331.67 344.953 354.256 347.85 354.874 347.941C366.67 363.363 374.118 381.641 376.45 400.887Z" fill="#48B290"/>
<path d="M307.41 361.902C306.551 360.22 304.018 361.692 304.877 363.403C320.739 394.132 328.745 435.564 300.655 462.21C289.558 472.719 275.265 479.024 261.559 485.434C247.853 491.844 234.419 499.109 222.357 508.792C208.892 519.739 197.395 532.887 188.357 547.672C188.131 548.343 188.405 549.079 189.015 549.441C189.625 549.803 190.407 549.691 190.89 549.174C199.809 534.597 211.159 521.641 224.453 510.863C237.435 500.355 252.105 493.09 267.153 486.034C280.813 479.639 294.835 472.809 305.299 461.685C316.155 450.141 321.613 434.754 322.367 419.112C323.347 398.981 316.502 379.526 307.41 361.902Z" fill="#349D7B"/>
<path d="M255.889 297.876L242.923 302.275C230.861 298.792 194.071 265.946 194.071 265.946C197.933 261.391 202.922 257.919 208.546 255.874L255.889 297.876Z" fill="#48B290"/>
<path d="M194.071 280.478L180.833 321.58L173.159 324.702C171.154 309.691 175.33 294.679 183.487 280.688C184.482 278.977 185.598 277.175 186.804 275.344L194.071 280.478Z" fill="#48B290"/>
<path d="M506.479 212.114C518.918 221.016 527.859 223.343 524.361 235.337C523.818 237.199 523.004 240.276 521.677 244.239L477.952 213.66C480.561 211.857 483.078 209.923 485.491 207.866C489.381 203.993 494.055 203.227 506.479 212.114Z" fill="#48B290"/>
<path d="M382.526 261.773V262.119C382.514 275.764 372.188 287.214 358.563 288.689C344.937 290.164 332.381 281.192 329.423 267.868C336.434 264.986 349.913 261.473 372.741 262.419C376.016 262.533 379.295 262.316 382.526 261.773Z" fill="#48B290"/>
<path d="M194.072 265.946C194.072 265.946 230.801 298.792 242.923 302.275L255.89 297.876C255.89 297.876 304.53 281.483 323.181 271.23C325.112 269.819 327.234 268.687 329.484 267.868C332.442 281.192 344.998 290.164 358.624 288.688C372.249 287.213 382.575 275.764 382.587 262.118V261.773C414.084 256.924 460.011 226.721 478.043 213.735L521.769 244.314C514.411 265.916 490.875 313.368 405.143 327.104C377.792 331.503 358.991 334.61 345.24 337.297C342.647 337.808 340.249 338.303 338.003 338.798L335.967 339.234L331.549 340.255L330.358 340.54C328.851 340.915 327.494 341.275 326.182 341.636L324.765 342.026C322.367 342.716 320.241 343.407 318.161 344.113L317.226 344.458C314.135 345.555 311.114 346.838 308.179 348.301C307.244 348.751 306.325 349.232 305.405 349.727C303.173 350.913 300.882 352.204 298.514 353.615L297.293 354.351C291.714 357.668 285.156 361.736 275.928 366.96C275.446 367.231 274.963 367.501 274.42 367.741C273.878 367.981 273.682 368.146 273.32 368.327C272.46 368.762 271.586 369.182 270.711 369.588C239.32 384.074 196.605 376.748 179.552 344.413C176.256 338.275 174.091 331.6 173.159 324.702L180.834 321.58L194.072 280.478L186.804 275.344C188.969 272.022 191.4 268.879 194.072 265.946Z" fill="#7AC7AE"/>
<path d="M246.587 298.312C237.056 301.157 227.81 304.871 218.964 309.406C217.291 310.276 218.829 312.753 220.472 311.898C229.074 307.48 238.068 303.867 247.34 301.104C247.922 300.761 248.203 300.074 248.027 299.423C247.852 298.773 247.263 298.319 246.587 298.312Z" fill="#48B290"/>
<path d="M511.59 234.407C500.568 257.265 482.587 276.081 460.206 288.179C434.016 302.275 404.675 302.936 375.771 306.298C361.643 307.934 347.682 310.517 334.368 315.651C322.267 320.59 310.571 326.462 299.388 333.214C287.145 340.3 275.083 347.761 262.297 353.855C248.848 360.251 233.469 364.694 219.371 357.623C206.425 350.845 197.723 338.088 196.167 323.607C194.448 307.679 200.765 291.902 210.852 279.757C212.059 278.256 209.993 276.245 208.787 277.701C192.503 297.216 186.276 326.474 203.027 347.791C209.978 356.663 220.2 363.073 231.584 364.124C246.526 365.49 260.85 358.209 273.605 351.364C301.65 336.352 327.523 317.647 359.457 311.627C389.974 305.848 421.969 307.935 451.084 295.745C478.688 284.082 501.089 262.819 514.108 235.923C514.922 234.137 512.404 232.711 511.59 234.407Z" fill="#48B290"/>
<path d="M136.942 201.276L124.88 224.679C122.156 223.358 119.407 222.077 116.632 220.836C115.471 220.311 114.31 219.785 113.149 219.23L132.509 199.219C133.941 199.94 135.434 200.6 136.942 201.276Z" fill="#FF9C90"/>
<path d="M132.449 199.219L113.09 219.23C85.5126 205.914 97.258 199.249 101.208 191.863C105.159 184.478 116.995 189.882 116.995 189.882C116.995 189.882 122.739 177.092 126.403 178.878C130.067 180.665 126.403 196.217 126.403 196.217C128.393 197.268 130.414 198.273 132.449 199.219Z" fill="#FFB6AD"/>
<path d="M106.742 195.106C104.848 199.472 103.334 203.992 102.219 208.616C102.082 209.091 102.324 209.593 102.781 209.784C103.239 209.976 103.768 209.796 104.013 209.367L104.39 208.752C104.54 208.481 104.54 208.152 104.39 207.881C105.402 203.837 106.728 199.877 108.355 196.037C108.898 194.866 107.239 193.875 106.742 195.106Z" fill="#FF9C90"/>
<path d="M149.246 206.155L138.797 231.585C134.153 229.243 129.509 226.916 124.82 224.679L136.882 201.276C140.968 203.032 145.085 204.639 149.246 206.155Z" fill="#FFE7E0"/>
<path d="M270.123 266.157L268.615 266.262L266.037 266.442H265.841C257.959 266.925 250.055 266.965 242.169 266.562C239.485 266.412 236.801 266.217 234.117 265.977L231.388 265.661L228.931 265.361L228.177 265.271C231.69 256.702 240.14 251.17 249.434 251.353C258.729 251.536 266.952 257.396 270.123 266.097V266.157Z" fill="#DA9C80"/>
<path d="M376.556 186.399C382.889 198.063 381.079 212.114 374.34 223.178C365.595 237.499 350.412 246.236 334.942 251.82C314.067 259.448 292.264 264.269 270.108 266.156C266.937 257.455 258.715 251.595 249.42 251.412C240.125 251.229 231.676 256.761 228.162 265.331C213.693 263.264 199.537 259.416 186.02 253.877C175.24 249.598 164.58 244.645 154.131 239.345C149.005 236.773 143.889 234.186 138.782 231.584L149.231 206.154C165.982 212.159 183.623 216.453 200.495 220.881C209.618 223.306 218.904 225.072 228.283 226.165C250.371 228.477 272.635 223.919 292.016 213.12C301.787 207.75 310.853 201.194 319.005 193.605C327.358 185.859 332.077 174.585 343.627 170.607C356.759 166.088 370.389 175.08 376.556 186.399Z" fill="#E4AE95"/>
<ellipse cx="138.797" cy="210.688" rx="2.2918" ry="2.28178" fill="#2E3257"/>
<path d="M324.507 128.739C321.481 129.896 318.521 131.219 315.642 132.702C315.185 132.879 314.795 133.194 314.526 133.603C314.375 133.968 314.313 134.364 314.345 134.758C314.424 139.448 314.99 144.116 316.034 148.689C316.089 149.064 316.246 149.417 316.486 149.71C317.074 150.281 317.994 149.98 318.778 149.71L328.82 145.207L329.468 153.853C329.457 154.217 329.563 154.575 329.77 154.874C330.184 155.231 330.739 155.381 331.277 155.28C337.795 154.877 344.151 153.085 349.913 150.025C349.575 146.98 348.985 143.967 348.149 141.018C347.976 140.314 347.629 139.664 347.139 139.127C346.727 138.778 346.251 138.513 345.737 138.346C338.65 135.404 330.659 133.197 324.507 128.739Z" fill="#FFE7E0"/>
<path d="M344.108 142.79C345.472 141.135 346.736 139.401 347.893 137.596L353.155 129.805L329.619 117.6C328.382 116.955 323.934 129.219 323.588 130.405C322.543 134.786 323.326 139.4 325.759 143.195C327.4 145.838 330.122 147.632 333.207 148.104C336.423 148.289 339.575 147.162 341.937 144.982C342.713 144.304 343.438 143.571 344.108 142.79Z" fill="#FFB6AD"/>
<path d="M323.619 130.405C323.412 131.339 323.281 132.288 323.227 133.243C331.976 132.73 340.753 133.525 349.266 135.599L353.156 129.805L329.619 117.6C328.353 116.955 323.905 129.219 323.619 130.405Z" fill="#FF9C90"/>
<path d="M381.094 83.7485C382.119 84.7693 389.13 91.2544 390.939 97.2591C392.131 101.207 381.139 103.069 381.139 103.069L381.094 83.7485Z" fill="#FF8178"/>
<ellipse rx="31.8262" ry="29.5986" transform="matrix(0.474774 -0.880108 0.881834 0.47156 354.984 100.829)" fill="#FFB6AD"/>
<ellipse cx="363.739" cy="112.691" rx="12.6953" ry="12.6399" fill="#FF8178"/>
<ellipse cx="367.78" cy="96.7788" rx="3.42264" ry="3.40767" fill="#211E21"/>
<path d="M380.762 72.4298C374.885 68.1638 367.953 65.5692 360.709 64.9239C353.437 64.5125 346.165 65.7175 339.419 68.4517C333.257 70.6472 327.782 74.4158 323.542 79.3803C318.914 85.2199 317.029 92.5906 316.245 99.8713C315.506 106.867 314.737 113.787 319.622 119.567C320.154 120.007 320.713 120.413 321.296 120.783C325.186 122.794 327.101 120.783 328.428 117C329.317 114.508 329.935 111.971 330.945 109.494V109.104C331.089 108.476 331.089 107.825 330.945 107.197C330.538 106.011 329.227 105.426 328.397 104.48C327.356 103.084 327.106 101.254 327.734 99.6312C328.403 98.0535 329.353 96.6091 330.538 95.3678C331.518 94.1819 332.921 92.8759 334.398 93.3562C334.67 93.4463 335.574 94.0768 335.62 94.347C335.642 95.6116 335.39 96.8661 334.881 98.0249C334.564 99.0307 334.157 99.9914 333.886 101.027C333.608 101.683 333.459 102.387 333.448 103.099C333.415 104.535 334.407 105.793 335.816 106.101C336.897 106.119 337.9 105.542 338.424 104.6C339.856 102.363 340.64 99.1958 341.741 96.7489C342.495 95.1126 343.098 92.1253 344.545 91.0594C345.137 90.6873 345.809 90.4609 346.506 90.3989C352.821 89.4983 359.072 88.1895 365.217 86.4808C368.193 85.6038 371.084 84.4633 373.856 83.0732C375.937 82.0224 380.37 80.0708 381.531 77.9692C382.34 77.2063 382.729 76.1016 382.577 75.0027C382.424 73.9037 381.748 72.9456 380.762 72.4298Z" fill="#6A3445"/>
<path d="M136.505 147.279H119.256C118.244 147.19 117.468 146.346 117.468 145.335C117.468 144.323 118.244 143.479 119.256 143.391H136.505C137.517 143.479 138.293 144.323 138.293 145.335C138.293 146.346 137.517 147.19 136.505 147.279Z" fill="#FF3D0A"/>
<path d="M127.881 155.85C126.804 155.85 125.929 154.986 125.921 153.914V136.755C125.921 135.677 126.798 134.804 127.881 134.804C128.964 134.804 129.841 135.677 129.841 136.755V153.914C129.833 154.986 128.958 155.85 127.881 155.85Z" fill="#FF3D0A"/>
<path d="M111.009 167.725H99.5352C98.7966 167.789 98.0846 167.434 97.6953 166.805C97.306 166.177 97.306 165.384 97.6953 164.756C98.0846 164.128 98.7966 163.772 99.5352 163.837H111.009C112.021 163.925 112.798 164.769 112.798 165.781C112.798 166.792 112.021 167.636 111.009 167.725Z" fill="#FF3D0A"/>
<path d="M105.264 173.444C104.188 173.436 103.319 172.565 103.319 171.493V160.069C103.408 159.061 104.256 158.288 105.272 158.288C106.288 158.288 107.135 159.061 107.224 160.069V171.493C107.224 172.57 106.347 173.444 105.264 173.444Z" fill="#FF3D0A"/>
<path d="M162.846 162.771H152.895C152.156 162.835 151.444 162.48 151.055 161.851C150.665 161.223 150.665 160.43 151.055 159.802C151.444 159.174 152.156 158.818 152.895 158.883H162.846C163.858 158.971 164.634 159.815 164.634 160.827C164.634 161.838 163.858 162.682 162.846 162.771Z" fill="#FF3D0A"/>
<path d="M157.87 167.725C156.793 167.725 155.918 166.86 155.91 165.788V155.88C155.845 155.145 156.202 154.436 156.833 154.049C157.464 153.661 158.261 153.661 158.892 154.049C159.523 154.436 159.88 155.145 159.815 155.88V165.788C159.815 166.858 158.944 167.725 157.87 167.725Z" fill="#FF3D0A"/>
</svg>