<svg width="470" height="470" viewBox="0 0 470 470" fill="none" xmlns="http://www.w3.org/2000/svg">
<path d="M77.1981 310.919C72.1815 313.635 70.7944 320.409 70.9678 326.257C71.1412 332.106 72.2393 338.244 70.02 343.596C67.1187 350.681 59.0737 354.842 57.3052 362.321C55.976 367.881 58.542 373.811 57.3052 379.394C55.9644 385.67 50.3699 389.797 46.6248 394.963C43.0611 399.946 41.2004 405.946 41.3193 412.071C41.3771 414.787 41.8163 417.573 41.0766 420.162C40.0363 423.872 36.8922 426.45 34.6729 429.559C31.1613 434.611 30.0573 440.956 31.6561 446.897C32.4519 450.077 33.7597 453.107 35.5283 455.867C37.3084 458.514 40.0131 461.219 43.1109 462.086H443.175C442.319 453.735 436.486 446.736 428.426 444.389C418.89 441.916 407.794 446.782 399.471 441.384C394.605 438.228 392.166 432.403 389.646 427.085C386.074 419.561 380.873 411.678 372.886 410.198C365.95 408.915 359.073 412.972 351.999 413.157C345.237 413.24 338.889 409.911 335.111 404.303C332.8 400.835 331.447 396.489 328.373 393.646C322.905 388.583 314.502 390.178 307.278 391.611C300.053 393.045 291.222 393.599 286.841 387.508C285.789 386.209 285.039 384.693 284.645 383.069C281.94 372.32 271.04 364.471 260.372 365.569C254.534 366.159 248.986 369.037 243.126 368.875C234.376 368.574 227.359 361.558 221.568 354.773C215.777 347.988 209.582 340.509 200.994 338.729C196 337.701 190.845 338.729 185.748 338.787C179.048 338.773 172.477 336.957 166.722 333.528C162.701 331.049 159.116 327.925 156.111 324.281C153.799 321.645 151.198 319.287 147.684 318.756C143.789 318.166 139.836 319.542 135.917 319.299C130.415 318.975 124.578 317.38 121.076 312.641C119.746 310.838 118.868 308.723 117.608 306.862C114.068 301.467 107.854 298.449 101.425 299.002" fill="#FFAF03"/>
<path d="M279.27 60.8077C278.055 65.4885 276.51 70.0773 274.647 74.5396C283.223 78.4581 293.002 78.4927 302.388 78.4465C303.788 72.2665 304.294 65.9177 303.891 59.594C303.964 58.6392 303.598 57.7031 302.897 57.051L279.27 60.8077Z" fill="#FFB6AD"/>
<path d="M303.128 57.1666L302.978 57.051L279.27 60.8077C278.055 65.4885 276.51 70.0773 274.647 74.5396C277.9 75.9878 281.333 76.9946 284.853 77.5334C286.185 74.9994 287.866 72.6648 289.847 70.598C293.354 67.13 297.16 63.9777 301.221 61.1775C301.775 60.8162 302.267 60.3672 302.677 59.8483C303.201 59.0588 303.365 58.084 303.128 57.1666Z" fill="#FF9C90"/>
<path d="M270.22 22.4669C269.307 23.1027 263.111 27.0327 260.973 31.2979C259.528 34.1183 267.55 37.0773 267.55 37.0773L270.22 22.4669Z" fill="#FF8178"/>
<ellipse cx="287.535" cy="39.2966" rx="22.8403" ry="26.2155" fill="#FFB6AD"/>
<ellipse cx="280.796" cy="41.9089" rx="10.8654" ry="10.8653" fill="#FF8178"/>
<ellipse cx="276.681" cy="29.5525" rx="2.24243" ry="2.99375" fill="#211E21"/>
<path d="M315.889 40.0943C315.678 43.359 314.788 46.5438 313.277 49.4454C311.186 53.8784 308.461 57.9827 305.185 61.6285C304.569 62.3371 303.892 62.9907 303.163 63.5819C302.991 63.7246 302.796 63.8343 302.585 63.9056C302.317 63.9463 302.044 63.9225 301.787 63.8362C300.845 63.4661 299.974 62.9384 299.209 62.2758C297.809 61.1031 296.721 59.602 296.042 57.9065C295.352 56.6338 294.794 55.2936 294.378 53.9071C293.95 52.5176 293.95 51.0315 294.378 49.6419C295.126 48.1978 295.992 46.8176 296.967 45.5154C297.665 44.243 298.06 42.8271 298.123 41.3773C298.244 40.5048 298.056 39.6173 297.591 38.869C297.089 38.1007 296.072 37.8617 295.279 38.3258C294.986 38.5811 294.756 38.9018 294.609 39.262C294.32 39.8284 294.054 40.4179 293.811 40.9843C293.554 41.6721 293.225 42.3308 292.829 42.9493C292.413 43.5563 291.772 43.9723 291.049 44.1052C290.3 44.2441 289.557 43.8387 289.269 43.1343C289.186 42.8493 289.158 42.5511 289.188 42.2558C289.368 39.73 290.019 37.2602 291.107 34.9737C289.698 34.5218 288.423 33.7275 287.396 32.6619C283.952 29.4049 281.867 24.9662 281.559 20.2361C281.087 20.697 280.507 21.031 279.871 21.2071C279.216 21.4684 278.527 21.6395 277.825 21.7156C277.028 21.8197 276.23 21.9121 275.421 21.9815C274.581 22.0856 273.73 22.0856 272.89 21.9815C272.038 21.8575 271.252 21.4503 270.659 20.8256C272.427 17.8292 275.035 15.4177 278.161 13.8903C279.474 13.318 280.826 12.839 282.206 12.457C283.863 11.9468 285.555 11.5604 287.269 11.3011C293.511 10.4514 299.825 12.2445 304.688 16.2483C311.069 21.5769 315.866 28.8937 316.247 37.2045C316.363 38.0715 315.912 39.1927 315.889 40.0943Z" fill="#6A3445"/>
<ellipse cx="316.374" cy="23.565" rx="15.7316" ry="15.7316" fill="#6A3445"/>
<path d="M427.767 290.448C432.934 298.181 431.674 308.26 426.357 319.438C418.208 317.536 412.019 310.894 410.697 302.631C409.376 294.368 413.185 286.127 420.335 281.779C423.115 284.394 425.607 287.301 427.767 290.448Z" fill="#48B290"/>
<path d="M345.202 454.908C347.641 458.849 342.567 462.12 342.567 462.12H270.127C260.73 462.12 258.568 457.982 259.054 453.405C259.505 453.867 262.522 456.503 273.306 456.503C279.918 456.503 300.261 457.462 317.669 457.485C331.32 457.474 343.133 456.954 345.202 454.908Z" fill="#349D7B"/>
<path d="M336.117 240.421C336.117 240.964 336.753 265.33 306.064 277.803C288.934 286.287 293.58 314.132 293.58 314.132C279.039 312.236 265.839 309.844 257.748 306.873L291.269 228.273C291.269 228.273 311.231 232.584 336.175 240.467L336.117 240.421Z" fill="#48B290"/>
<path d="M334.325 448.805C340.879 450.804 343.977 452.943 345.202 454.908C343.133 456.954 331.32 457.474 317.704 457.474C318.258 447.071 330.176 447.626 330.569 447.649L334.325 448.805Z" fill="white"/>
<path d="M330.534 447.66C330.141 447.66 318.224 447.036 317.669 457.485C300.261 457.485 279.918 456.503 273.306 456.503C262.556 456.503 259.505 453.867 259.054 453.405C259.516 450.463 260.541 447.638 262.071 445.083C265.446 439.095 282.287 410.649 282.287 410.649L288.945 412.891L292.725 414.325L285.385 425.305C283.801 427.618 283.581 430.603 284.809 433.123C286.038 435.642 288.525 437.308 291.322 437.484C294.12 437.66 296.796 436.32 298.331 433.975L307.682 420.011L325.899 426.947L311.52 436.668C310.573 437.314 310.076 438.441 310.238 439.576C310.4 440.71 311.193 441.653 312.283 442.008C316.19 443.21 322.165 445.094 330.534 447.66Z" fill="#2E3257"/>
<path d="M307.682 420.011L298.331 433.975C296.796 436.32 294.119 437.66 291.322 437.484C288.525 437.308 286.037 435.642 284.809 433.123C283.581 430.603 283.801 427.618 285.385 425.305L292.725 414.324L307.682 420.011Z" fill="white"/>
<path d="M230.214 296.62L232.596 302.978C231.786 305.975 230.927 308.842 230.018 311.578L199.098 297.383C198.034 296.898 197.351 295.836 197.353 294.667V285.42L230.214 296.62Z" fill="#349D7B"/>
<path d="M410.452 299.383C410.453 308.95 417.041 317.258 426.357 319.438C405.331 363.627 320.986 424.843 320.986 424.843L307.751 419.907L296.747 415.862C318.952 385.092 342.636 352.866 377.81 336.106C385.034 332.638 392.952 329.91 398.824 324.235C403.517 319.704 407.019 312.433 404.129 305.995C401.124 299.337 392.49 297.603 386.086 296.401L385.184 296.239C375.937 294.621 366.609 294.494 357.293 294.482C337.851 294.482 316.293 294.621 300.18 282.287C301.855 280.417 303.872 278.883 306.122 277.768C336.799 265.296 336.175 240.93 336.175 240.386C365.465 249.634 401.621 263.828 420.393 281.756C414.22 285.485 410.449 292.172 410.452 299.383Z" fill="#7AC7AE"/>
<path d="M396.304 301.695C406.707 306.7 402.685 318.305 395.449 324.2C389.091 329.39 380.965 331.921 373.741 335.597C358.53 343.353 345.11 354.288 333.285 366.505C318.86 381.393 306.7 398.223 294.551 414.983L292.725 414.301L288.922 412.891C288.922 412.891 315.392 374.446 318.86 368.043C322.131 361.893 331.713 337.238 362.714 322.05C362.991 321.958 366.552 320.004 366.69 320.212C374.4 316.744 379.151 315.912 387.496 314.259C388.906 313.982 388.305 311.809 386.895 312.098C378.445 313.776 370.218 316.43 362.379 320.004C351.167 319.415 320.235 317.611 293.627 314.132C293.627 314.132 290.517 295.488 298.77 284.079C310.445 292.945 325.229 295.788 339.677 296.516C348.809 296.967 357.952 296.632 367.083 296.886C373.026 296.921 378.958 297.373 384.838 298.239C388.801 298.858 392.659 300.021 396.304 301.695Z" fill="#7AC7AE"/>
<path d="M366.69 320.212L362.344 320.004C370.183 316.43 378.41 313.776 386.86 312.098C388.271 311.809 388.872 313.982 387.461 314.259C379.151 315.912 374.4 316.71 366.655 320.212" fill="#48B290"/>
<path d="M357.247 294.494C366.563 294.494 375.937 294.632 385.138 296.251L384.803 298.204C378.924 297.338 372.991 296.887 367.049 296.852C357.917 296.597 348.774 296.932 339.642 296.482C325.194 295.753 310.41 292.91 298.736 284.044C299.175 283.443 299.637 282.888 300.134 282.299C316.247 294.655 337.805 294.494 357.247 294.494Z" fill="#48B290"/>
<path d="M398.778 324.269C392.906 329.945 384.988 332.696 377.763 336.14C342.636 352.866 318.952 385.092 296.747 415.804L294.574 414.983C306.699 398.223 318.848 381.393 333.308 366.505C345.144 354.288 358.564 343.388 373.764 335.597C380.988 331.921 389.114 329.39 395.472 324.2C402.708 318.305 406.776 306.7 396.327 301.695C392.653 300.009 388.763 298.842 384.768 298.227L385.103 296.274L386.005 296.436C392.409 297.591 401.032 299.371 404.048 306.029C406.973 312.468 403.47 319.738 398.778 324.269Z" fill="#48B290"/>
<path d="M206.137 232.203L230.214 296.62L197.353 285.374V294.621C197.351 295.79 198.034 296.852 199.098 297.337L230.018 311.531C224.134 329.309 216.274 341.735 207.732 350.554C202.039 344.191 193.009 342 185.032 345.047C177.055 348.094 171.785 355.747 171.784 364.286C171.784 366.468 172.127 368.637 172.801 370.713C167.704 372.123 163.034 373.025 159.093 373.857C139.627 377.972 83.9599 400.708 83.9599 400.708L78.1805 395.634L69.9043 388.305C79.5213 379.659 89.4388 371.337 99.8418 363.639C110.245 355.941 121.48 347.815 133.628 342.833C140.385 340.141 147.589 338.749 154.862 338.729C161.543 338.579 168.27 338.868 174.87 337.574C184.95 335.62 192.81 329.17 192.07 318.224C191.573 310.919 189.25 303.729 187.978 296.551C186.707 289.373 186.106 282.183 187.377 275.075L206.137 232.203Z" fill="#48B290"/>
<path d="M188.163 308.283C189.562 314.837 191.827 322.732 187.296 328.581C183.204 333.852 176.061 335.458 169.773 336.071C162.965 336.73 156.122 336.186 149.302 336.753C143.608 337.227 138.026 338.6 132.762 340.822C120.971 345.746 110.175 353.432 99.9227 360.946C88.8378 369.014 78.4348 377.717 68.2861 386.861L66.3789 385.173L63.6394 382.757C63.6394 382.757 103.934 324.408 139.558 323.992C175.183 323.576 171.368 313.808 170.097 299.383C169.602 293.317 170.047 287.212 171.414 281.282L179.841 285.038C180.571 285.366 181.403 285.387 182.148 285.096C182.894 284.805 183.491 284.226 183.806 283.489L184.557 281.779C184.314 290.644 186.302 299.545 188.163 308.283Z" fill="#48B290"/>
<path d="M188.059 296.574C189.331 303.752 191.654 310.942 192.151 318.247C192.891 329.193 185.031 335.643 174.951 337.597C168.351 338.868 161.624 338.579 154.943 338.753C147.67 338.772 140.466 340.164 133.709 342.856C121.561 347.884 110.43 355.941 99.9228 363.662C89.4158 371.383 79.5907 379.706 69.9853 388.352L68.2861 386.861C78.4348 377.718 88.8378 369.014 99.8766 360.946C110.129 353.444 120.925 345.746 132.762 340.822C138.04 338.596 143.639 337.222 149.349 336.753C156.168 336.186 163.011 336.753 169.819 336.071C176.107 335.458 183.251 333.852 187.343 328.581C191.874 322.732 189.654 314.837 188.21 308.283C186.349 299.545 184.36 290.644 184.603 281.779L187.504 275.098C186.187 282.206 186.788 289.408 188.059 296.574Z" fill="#349D7B"/>
<path d="M203.167 224.262L206.137 232.203L183.806 283.49C183.491 284.226 182.894 284.805 182.148 285.096C181.403 285.387 180.571 285.367 179.841 285.038L171.415 281.282C172.004 278.521 172.823 275.814 173.865 273.191L203.167 224.262Z" fill="#349D7B"/>
<path d="M192.382 343.734C198.244 343.729 203.829 346.227 207.732 350.6C196.335 362.414 183.621 367.731 172.801 370.782C170.756 364.506 171.838 357.63 175.711 352.284C179.584 346.939 185.781 343.769 192.382 343.758V343.734Z" fill="#349D7B"/>
<path d="M95.1952 450.157C95.2709 450.674 95.2709 451.2 95.1952 451.718C94.1665 461.739 63.8937 454.295 51.78 451.718C39.6663 449.14 32.3727 430.426 25.4489 411.435C22.8713 404.361 24.293 400.28 27.437 397.772C27.437 397.772 40.0709 446.4 57.0047 448.805L61.3624 449.452C76.9553 451.81 93.6001 454.769 95.1952 450.157Z" fill="#349D7B"/>
<path d="M95.1951 450.157C93.6 454.781 76.9552 451.81 61.3623 449.452C61.8478 438.98 75.4526 440.135 75.4526 440.135C80.1224 440.656 94.1202 442.979 95.1951 450.157Z" fill="white"/>
<path d="M87.5894 403.933C87.9547 404.256 88.1404 404.736 88.0875 405.221C88.0347 405.706 87.7499 406.135 87.3236 406.372C82.0865 409.088 76.6814 411.466 71.1411 413.492C58.7269 418.289 69.4304 433.998 72.9443 438.633C73.5386 439.457 74.4456 440 75.4526 440.135C75.4526 440.135 61.8478 438.98 61.3623 449.51L57.0046 448.862C40.0709 446.458 27.437 397.83 27.437 397.83C32.7425 393.599 43.0068 393.831 47.5148 391.738C52.8781 389.253 57.0855 383.485 58.8887 380.711C59.1315 380.33 59.5342 380.079 59.9836 380.03C60.4331 379.98 60.8806 380.137 61.2005 380.457L63.6625 382.769L66.402 385.185L57.0624 392.386C55.1529 393.851 54.0268 396.116 54.0109 398.523C54.0087 400.245 54.5824 401.917 55.6407 403.274C58.2726 406.68 63.1655 407.311 66.5754 404.684L78.2614 395.645L87.5894 403.933Z" fill="#2E3257"/>
<path d="M66.3789 385.173L78.2614 395.68L66.5754 404.719C63.1655 407.346 58.2726 406.715 55.6407 403.309C54.575 401.942 54.0009 400.256 54.0109 398.523C54.007 396.104 55.1256 393.82 57.0393 392.339L66.3789 385.173Z" fill="white"/>
<path d="M287.362 260.372L285.882 272.786L274.323 275.167C273.519 275.321 272.686 275.146 272.011 274.682L257.701 264.614L259.273 257.482C259.62 255.867 261.205 254.835 262.822 255.17L287.362 260.372Z" fill="#E4AE95"/>
<path d="M285.882 272.786L283.975 288.795V288.934C266.868 293.615 257.84 286.298 254.95 283.235C254.281 282.516 254.008 281.513 254.222 280.554L257.748 264.614L272.058 274.682C272.732 275.146 273.565 275.321 274.369 275.167L285.882 272.786Z" fill="#A76C50"/>
<path d="M306.503 72.066C301.822 69.3266 289.639 73.7883 288.945 73.5456L304.365 80.2266L305.289 80.6311C306.604 80.0642 307.839 79.3299 308.965 78.4465C311.751 76.1347 310.098 74.1813 306.503 72.066Z" fill="#A76C50"/>
<path d="M305.335 80.6543L304.411 80.2498L288.991 73.5687L276.681 69.3266C276.681 69.3266 272.173 68.8527 270.717 71.4303C270.363 72.0102 269.977 72.5697 269.561 73.1064C268.862 73.9694 268.269 74.9123 267.792 75.9152C266.81 78.227 267.341 80.8393 273.745 82.758C275.34 83.2319 277.051 83.8214 278.819 84.4687L279.236 84.619C279.617 84.7462 279.998 84.8964 280.391 85.0582C280.542 85.0582 280.692 85.1738 280.842 85.2316C289.292 88.4912 298.527 92.8952 302.457 94.1551C302.999 94.369 303.574 94.4826 304.156 94.4903C305.03 94.2169 305.786 93.6595 306.306 92.9067C308.179 90.5603 309.612 85.8558 305.335 80.6543Z" fill="#DA9C80"/>
<path d="M330.418 234.792C330.904 245.045 328.476 259.066 311.046 266.544C299.753 271.422 292.135 265.747 287.5 259.424L289.223 245.079C303.757 246.917 318.454 243.247 330.418 234.792V234.792Z" fill="#FF3D0A"/>
<path d="M329.817 228.955C329.967 229.949 330.095 231.024 330.199 232.168C318.519 240.884 303.909 244.722 289.454 242.872L290.321 235.578C297.533 236.734 304.769 235 311.658 232.526C317.75 230.468 323.618 227.795 329.17 224.551C329.436 226.296 329.667 227.845 329.817 228.955Z" fill="#FF3D0A"/>
<path d="M327.899 216.147C328.234 218.309 328.546 220.332 328.812 222.17C323.214 225.544 317.259 228.289 311.057 230.353C304.446 232.734 297.522 234.468 290.598 233.347L291.477 225.996C304.326 226.403 317.005 222.974 327.899 216.147Z" fill="#FF3D0A"/>
<path d="M325.356 199.607C326.084 204.3 326.835 209.224 327.54 213.743C316.882 220.625 304.39 224.119 291.708 223.765L296.609 182.696C296.609 182.696 309.959 197.029 325.356 199.607Z" fill="#FF3D0A"/>
<path d="M323.31 95.2301C323.336 96.7471 323.228 98.2634 322.986 99.7612C320.871 93.5772 314.733 88.2023 307.959 88.9536C308.091 88.1901 308.115 87.4119 308.029 86.6419C314.236 86.1101 320.015 89.9708 323.31 95.2301Z" fill="white"/>
<path d="M323.31 95.23C320.05 89.9707 314.259 86.1101 308.075 86.6765C307.977 85.6365 307.715 84.6184 307.301 83.6596C309.463 83.0138 311.714 82.7134 313.97 82.7696C315.531 82.6909 317.094 82.8745 318.594 83.3128C321.175 85.6016 322.822 88.7626 323.217 92.19C323.302 93.201 323.333 94.2158 323.31 95.23Z" fill="#DE370B"/>
<path d="M322.986 99.7611C322.402 103.34 320.989 106.732 318.859 109.667C317.091 108.997 315.542 108.407 314.236 107.945C314.444 107.552 314.629 107.147 314.814 106.789C315.97 104.258 315.6 100.015 306.191 92.9183C307.111 91.7772 307.713 90.4136 307.936 88.9651C314.733 88.1907 320.871 93.5771 322.986 99.7611Z" fill="#DE370B"/>
<path d="M291.742 223.765C304.425 224.119 316.917 220.625 327.575 213.743C327.691 214.564 327.818 215.362 327.933 216.148C317.04 222.974 304.36 226.403 291.511 225.996L291.742 223.765Z" fill="white"/>
<path d="M306.26 92.9067C315.669 99.9576 316.016 104.2 314.883 106.777C314.698 107.193 314.513 107.598 314.305 107.933C312.895 107.425 311.809 107.066 311.092 106.87C310.375 106.673 309.786 106.523 309.023 106.35C308.064 106.153 306.989 105.957 305.833 105.783C299.903 104.905 291.789 104.627 284.726 106.72L283.2 106.269C285.004 100.119 287.593 94.1781 292.448 90.0863C296.667 91.9126 300.308 93.4846 302.411 94.1666C302.953 94.3805 303.528 94.4941 304.11 94.5018C304.985 94.2254 305.742 93.6638 306.26 92.9067Z" fill="#FF5713"/>
<path d="M312.606 80.6543C310.405 80.6904 308.223 81.0607 306.133 81.7524C305.902 81.4057 305.625 81.0473 305.336 80.689C306.65 80.1221 307.885 79.3878 309.011 78.5044C310.921 78.9507 312.763 79.6464 314.49 80.5734C313.878 80.5272 313.242 80.5503 312.606 80.6543Z" fill="#DE370B"/>
<path d="M306.145 81.7062C308.234 81.0145 310.417 80.6442 312.618 80.6081C313.253 80.5503 313.889 80.5272 314.513 80.5272C315.958 81.2841 317.302 82.2201 318.513 83.3129C317.013 82.8746 315.45 82.6909 313.889 82.7696C311.633 82.7135 309.382 83.0139 307.22 83.6597C306.92 82.978 306.56 82.3243 306.145 81.7062H306.145Z" fill="white"/>
<path d="M330.419 234.792C318.454 243.247 303.758 246.917 289.223 245.079L289.477 242.872C303.933 244.722 318.542 240.884 330.222 232.168C330.291 233 330.349 233.89 330.419 234.792Z" fill="white"/>
<path d="M329.17 224.551C323.618 227.795 317.75 230.468 311.658 232.526C304.723 235 297.533 236.722 290.321 235.578L290.598 233.347C297.533 234.503 304.469 232.735 311.057 230.353C317.259 228.289 323.214 225.544 328.812 222.17C328.939 223.002 329.066 223.799 329.17 224.551Z" fill="white"/>
<path d="M290.17 89.0923L292.482 90.0748C287.628 94.1898 285.038 100.131 283.235 106.257L281.085 105.575C282.888 99.4028 285.524 93.4384 290.17 89.0923Z" fill="white"/>
<path d="M287.581 87.9941L290.17 89.15C285.547 93.4962 282.888 99.4606 281.05 105.656C278.981 104.997 277.051 104.304 275.271 103.599C277.602 97.2154 281.916 91.7467 287.581 87.9941V87.9941Z" fill="#FF5713"/>
<path d="M285.131 86.9771L287.581 87.9942C281.917 91.7281 277.595 97.1757 275.248 103.541C274.531 103.264 273.838 102.986 273.167 102.697C275.513 96.3894 279.676 90.9188 285.131 86.9771Z" fill="white"/>
<path d="M281.443 85.486C282.669 85.9599 283.894 86.4685 285.131 86.9771C279.676 90.9188 275.513 96.3894 273.167 102.697C271.053 101.815 268.989 100.82 266.983 99.7149C268.255 95.9635 270.51 92.6223 273.514 90.0402C275.848 88.0382 278.538 86.4933 281.443 85.486Z" fill="#FF5713"/>
<path d="M278.403 84.33C276.471 85.2065 274.644 86.3001 272.959 87.5896C269.325 90.4109 266.567 94.2071 265.007 98.5359C258.372 94.444 255.147 90.121 254.199 86.0176C253.783 84.2424 253.783 82.3948 254.199 80.6196C256.083 72.4243 269.503 73.0832 269.503 73.0832C268.805 73.9463 268.211 74.8891 267.735 75.892C267.735 75.892 258.95 76.9785 260.73 80.6196C262.383 84.0179 268.706 81.1744 278.403 84.33Z" fill="#FF5713"/>
<path d="M280.345 85.0583C280.495 85.0583 280.646 85.1739 280.796 85.2317L281.443 85.486C278.538 86.4933 275.848 88.0383 273.514 90.0402C270.51 92.6223 268.255 95.9635 266.983 99.715C266.29 99.3335 265.631 98.9405 265.007 98.5591C266.563 94.2219 269.321 90.4172 272.959 87.5897C274.644 86.3002 276.471 85.2066 278.403 84.3301L278.831 84.4688L279.247 84.6191L280.345 85.0583Z" fill="white"/>
<path d="M273.699 82.758C275.294 83.2319 277.005 83.8214 278.773 84.4687C268.891 81.082 262.406 84.0642 260.742 80.6427C258.961 77.0017 267.746 75.9152 267.746 75.9152C266.764 78.2501 267.295 80.8392 273.699 82.758Z" fill="#DE370B"/>
<path d="M322.073 178.466C322.073 178.466 323.622 188.372 325.356 199.607C309.959 197.029 296.643 182.696 296.643 182.696L298.319 168.687C305.926 172.627 313.862 175.896 322.038 178.454L322.073 178.466Z" fill="#DE370B"/>
<path d="M283.524 237.566C282.955 237.306 282.335 237.171 281.709 237.173C279.245 237.173 277.248 239.171 277.248 241.635C277.248 244.099 279.245 246.097 281.709 246.097H282.044C284.078 245.938 285.744 244.421 286.093 242.412C286.442 240.403 285.385 238.413 283.524 237.578V237.566Z" fill="#A76C50"/>
<path fill-rule="evenodd" clip-rule="evenodd" d="M443.489 84.7426C441.951 83.3211 439.888 82.6096 437.8 82.7811L393.114 86.3413C391.015 86.5092 389.083 87.5515 387.791 89.2135C386.498 90.8755 385.963 93.0042 386.317 95.0798L388.432 107.298C388.444 107.298 421.202 104.512 429.05 103.83C430.05 103.749 430.873 103.011 431.062 102.027L432.449 94.9758L435.604 101.911C435.997 102.785 436.904 103.311 437.858 103.217L445.892 102.616V90.2597C445.899 88.1654 445.027 86.1641 443.489 84.7426ZM419.884 91.0111C422.074 91.0111 423.849 92.7861 423.849 94.9758C423.849 96.0273 423.431 97.0357 422.688 97.7792C421.944 98.5228 420.936 98.9405 419.884 98.9405C417.695 98.9405 415.919 97.1654 415.919 94.9758C415.919 92.7861 417.695 91.0111 419.884 91.0111Z" fill="#DA9C80"/>
<path d="M428.553 157.694C431.808 157.696 435.017 158.469 437.916 159.948C431.559 173.426 421.734 181.598 409.377 185.886C406.867 179.542 407.659 172.366 411.494 166.722C415.328 161.078 421.707 157.698 428.53 157.694H428.553Z" fill="#DA9C80"/>
<path d="M419.884 91.0573C421.502 91.0386 422.969 92.0018 423.596 93.4932C424.222 94.9846 423.883 96.7069 422.737 97.849C421.592 98.9912 419.869 99.3255 418.379 98.6946C416.889 98.0637 415.931 96.5932 415.954 94.9757C415.979 92.8176 417.726 91.076 419.884 91.0573Z" fill="#A76C50"/>
<path d="M445.845 113.158V102.616L437.812 103.217C436.874 103.291 435.991 102.768 435.604 101.911L432.449 94.9758L431.062 102.027C430.873 103.012 430.05 103.749 429.05 103.83C421.202 104.512 388.444 107.298 388.432 107.298L394.154 140.518C394.154 140.518 340.428 117.909 318.859 109.667C317.091 108.997 315.542 108.407 314.236 107.945C312.93 107.483 311.739 107.078 311.023 106.881C310.306 106.685 309.716 106.535 308.953 106.361C307.994 106.165 306.919 105.968 305.763 105.795C299.834 104.916 291.719 104.639 284.657 106.731C277.941 108.685 272.173 112.684 270.15 120.174C269.681 121.905 269.33 123.666 269.098 125.445C268.96 126.428 268.867 127.433 268.821 128.45C268.821 128.45 274.936 142.055 299.66 156.885C319.31 168.652 350.623 181.159 399.945 188.348C403.132 187.77 406.27 186.947 409.331 185.886C406.156 177.901 408.269 168.784 414.633 163.009C420.997 157.235 430.276 156.015 437.916 159.948C443.349 148.47 446.215 133.178 445.845 113.158Z" fill="#E4AE95"/>
<path d="M416.37 149.742C409.437 144.718 401.809 140.73 393.726 137.906L394.166 140.46C401.675 143.209 408.766 146.986 415.237 151.684C416.416 152.528 417.538 150.586 416.37 149.742Z" fill="#DA9C80"/>
<path d="M299.729 156.943C275.005 142.113 268.89 128.508 268.89 128.508C268.324 140.68 273.976 154.989 295.776 167.346L298.354 168.502V168.802C305.96 172.743 313.897 176.011 322.073 178.57C325.263 179.594 328.638 180.592 332.198 181.563C357.096 188.314 380.746 191.966 400.014 188.499C350.693 181.217 319.345 168.652 299.729 156.943Z" fill="#DA9C80"/>
<path d="M298.354 168.386V168.687C297.487 168.224 296.632 167.762 295.811 167.288L298.354 168.386Z" fill="#DA9C80"/>
<path d="M295.742 167.346C273.942 154.99 268.289 140.68 268.856 128.508C268.856 127.491 268.995 126.485 269.133 125.503C269.133 125.503 260.013 147.28 293.534 179.83C294.528 180.8 295.557 181.771 296.62 182.754L298.296 168.745C297.452 168.224 296.597 167.762 295.742 167.346Z" fill="#B57A60"/>
<path d="M286.795 184.072C289.258 184.072 291.255 186.067 291.257 188.53C291.259 190.992 289.266 192.991 286.803 192.995C284.34 192.999 282.34 191.008 282.334 188.545C282.33 187.36 282.799 186.222 283.636 185.383C284.473 184.543 285.61 184.072 286.795 184.072V184.072Z" fill="#A76C50"/>
<path d="M288.159 210.911C286.905 209.083 284.504 208.445 282.508 209.41C280.512 210.375 279.521 212.654 280.176 214.772C280.83 216.89 282.934 218.212 285.127 217.883C287.319 217.553 288.942 215.671 288.945 213.454C288.95 212.546 288.675 211.659 288.159 210.911Z" fill="#A76C50"/>
<path fill-rule="evenodd" clip-rule="evenodd" d="M269.156 125.445C269.156 125.445 260.036 147.222 293.557 179.772C293.654 179.864 293.752 179.955 293.848 180.047C294.004 180.195 294.159 180.343 294.314 180.49L294.316 180.491L294.316 180.492C295.082 181.221 295.843 181.945 296.643 182.65L287.477 259.378L287.362 260.326L262.857 255.147C261.24 254.812 259.655 255.844 259.308 257.459L257.736 264.591L254.211 280.531C253.997 281.49 254.269 282.493 254.939 283.212C257.829 286.275 266.856 293.592 283.963 288.911L282.16 303.937C281.895 306.174 280.02 307.871 277.768 307.913C233.752 308.515 203.398 289.604 195.145 283.825C193.745 282.845 193.024 281.156 193.284 279.467L200.196 234.804L180.269 271.572C179.676 272.665 178.658 273.464 177.456 273.779C176.254 274.095 174.975 273.898 173.923 273.237L161.208 265.25C159.476 264.164 158.7 262.041 159.324 260.094C165.439 240.768 183.517 189.643 198.3 153.545C203.537 140.749 208.368 129.837 212.102 122.902C226.744 95.7079 253.118 86.4175 254.185 86.0419L254.188 86.0408C255.817 93.0455 264.07 100.744 284.715 106.731C277.999 108.685 272.231 112.684 270.208 120.174C269.739 121.905 269.388 123.666 269.156 125.445ZM281.663 246.085H281.998V246.073C284.031 245.915 285.698 244.398 286.047 242.389C286.396 240.38 285.338 238.389 283.478 237.555C282.908 237.294 282.289 237.16 281.663 237.162C279.199 237.162 277.201 239.159 277.201 241.623C277.201 244.087 279.199 246.085 281.663 246.085ZM287.084 217.049C285.611 218.101 283.648 218.158 282.116 217.194C280.583 216.23 279.786 214.436 280.096 212.652C280.407 210.869 281.764 209.45 283.532 209.06C285.3 208.671 287.128 209.389 288.159 210.877C289.536 212.885 289.059 215.624 287.084 217.049ZM282.672 190.203C283.362 191.872 284.99 192.96 286.795 192.96V192.995C287.984 192.998 289.124 192.526 289.962 191.684C290.8 190.841 291.266 189.699 291.257 188.51C291.262 186.705 290.178 185.074 288.511 184.38C286.844 183.686 284.923 184.065 283.644 185.34C282.366 186.615 281.982 188.535 282.672 190.203Z" fill="#DA9C80"/>
<path d="M206.53 134.322C211.588 137.956 217.149 140.834 223.036 142.864C223.445 142.989 223.89 142.878 224.192 142.575C228.276 137.389 232.418 132.249 236.618 127.156C233.867 133.309 231.527 139.638 229.613 146.101C229.487 146.59 229.693 147.105 230.122 147.372C238.092 152.195 246.693 155.886 255.679 158.342C260.302 159.694 264.856 160.896 269.457 162.11C271.769 162.711 274.08 163.327 276.392 163.959C277.028 164.133 278.912 164.456 280.542 164.907C279.86 163.982 279.213 163.069 278.611 162.168C278.01 162.04 277.456 161.925 276.982 161.798C271.769 160.341 266.521 159.035 261.296 157.602C251.113 154.805 241.091 151.452 232.052 145.893C234.749 136.982 238.258 128.339 242.536 120.07C243.091 119.007 241.635 117.689 240.768 118.718C235.374 125.121 230.072 131.602 224.863 138.16C223.418 139.986 222.944 140.472 220.725 139.593C218.631 138.761 216.585 137.812 214.598 136.75C212.147 135.426 209.795 133.927 207.559 132.265C207.154 132.935 206.842 133.617 206.53 134.322Z" fill="#B57A60"/>
<path d="M254.13 86.0408C253.112 86.3991 226.7 95.6809 212.044 122.902C208.31 129.837 203.479 140.749 198.242 153.545C191.307 158.226 184.453 165.485 178.303 171.796C176.35 173.796 171.83 179.356 166.12 186.615C167.276 173.9 186.996 143.558 190.995 137.882C194.994 132.207 228.538 92.2132 228.538 92.2132C236.887 89.4637 245.446 87.3994 254.13 86.0408Z" fill="#A76C50"/>
<path d="M228.539 92.2131C228.539 92.2131 195.018 132.23 191.042 137.905C187.065 143.581 167.334 173.934 166.167 186.638C156.203 199.352 142.61 217.118 132.484 230.469L116.14 208.38C115.259 207.185 113.636 206.816 112.326 207.513L107.54 210.033L110.257 203.849C110.701 202.839 110.555 201.666 109.875 200.797L103.102 192.082C112.695 178.835 128.647 158.399 147.615 140.31C153.932 144.549 162.073 144.961 168.786 141.381C175.499 137.8 179.692 130.811 179.691 123.202C179.693 120.67 179.23 118.159 178.327 115.793C193.947 105.746 210.832 97.8167 228.539 92.2131Z" fill="#B57A60"/>
<path d="M178.327 115.793C180.752 122.13 179.906 129.255 176.065 134.848C172.224 140.442 165.878 143.789 159.093 143.801C155.007 143.814 151.01 142.606 147.615 140.333C154.59 133.613 162.008 127.369 169.819 121.642C172.647 119.569 175.483 117.62 178.327 115.793Z" fill="#A76C50"/>
<path fill-rule="evenodd" clip-rule="evenodd" d="M132.484 230.446L116.14 208.38C115.259 207.185 113.636 206.817 112.326 207.513L107.54 210.033L110.257 203.849C110.701 202.839 110.555 201.666 109.875 200.797L103.102 192.082C99.7033 196.775 97.1025 200.566 95.4496 203.028C94.1677 204.943 94.0958 207.423 95.2647 209.409L114.013 241.172C115.028 242.896 116.836 243.999 118.832 244.112C120.829 244.226 122.75 243.336 123.954 241.739L132.484 230.446ZM117.053 224.25C119.249 224.25 121.029 226.031 121.029 228.227C121.029 229.281 120.61 230.292 119.865 231.038C119.119 231.784 118.108 232.203 117.053 232.203C114.857 232.203 113.077 230.423 113.077 228.227C113.077 226.031 114.857 224.25 117.053 224.25Z" fill="#A76C50"/>
<path d="M117.053 224.262C118.665 224.248 120.127 225.209 120.752 226.695C121.378 228.181 121.044 229.898 119.907 231.041C118.771 232.185 117.056 232.529 115.566 231.912C114.076 231.295 113.107 229.839 113.111 228.227C113.118 226.049 114.875 224.281 117.053 224.262Z" fill="#E4AE95"/>
<path d="M64.3464 234.997L90.3381 286.72L75.4551 294.199L49.4635 242.476L64.3464 234.997Z" fill="#211E21"/>
<path d="M76.501 275.405L80.2637 282.893L76.2461 284.912L72.4833 277.424L76.501 275.405Z" fill="#FFF1ED"/>
<path d="M77.6025 310.26L75.2908 293.754L90.1786 286.264L102.119 297.961C102.702 298.531 102.974 299.348 102.848 300.154C102.721 300.96 102.213 301.654 101.483 302.018L81.2436 312.19C80.512 312.556 79.6487 312.546 78.9261 312.162C78.2035 311.779 77.7105 311.071 77.6025 310.26Z" fill="#211E21"/>
<path d="M96.5477 299.383L82.2378 306.573" stroke="#FFF1ED" stroke-width="4" stroke-linecap="round"/>
<path d="M51.8493 260.372L65.3847 276.97C59.2238 281.108 52.67 272.659 50.2773 268.798C48.9942 266.81 50.231 263.366 51.8493 260.372Z" fill="#FF9C90"/>
<path d="M55.5366 254.581L66.3904 276.161C66.0677 276.456 65.7238 276.726 65.3617 276.97L51.8494 260.372C52.9312 258.352 54.1637 256.416 55.5366 254.581V254.581Z" fill="#F7887B"/>
<path d="M76.3889 240.444C76.3889 240.444 76.4698 247.784 72.5398 253.159C71.8079 250.105 70.3887 247.259 68.3901 244.837C70.9174 243.133 73.5948 241.662 76.3889 240.444V240.444Z" fill="#F7887B"/>
<path d="M79.9028 256.349C82.7231 252.396 91.5657 253.691 91.5657 253.691C90.1478 255.355 88.6837 257.158 87.1733 259.1C76.2964 273.179 72.4242 277.294 69.835 276.889C69.8234 276.936 77.0708 260.337 79.9028 256.349Z" fill="#FF9C90"/>
<path d="M96.3856 211.27L110.973 235.994C109.776 236.727 108.619 237.522 107.505 238.375L90.6062 220.228L96.3856 211.27Z" fill="#FF9C90"/>
<path d="M407.528 25.4259C413.631 23.565 407.528 36.8692 407.528 36.8692C404.522 39.181 401.748 41.6546 399.136 43.9895C396.316 46.5671 394.824 50.8439 394.154 55.7218C394.096 55.0745 392.524 35.8058 407.528 25.4259Z" fill="#FF9C90"/>
<path d="M426.6 83.6596L396.396 86.0407C396.396 86.0407 396.108 84.8039 395.726 82.758L412.567 75.9152C411.955 68.7371 421.144 57.4209 421.421 57.0626C419.953 59.9523 419.26 62.8421 419.884 65.3503C422.785 77.2444 426.6 83.6596 426.6 83.6596Z" fill="#FF9C90"/>
<path d="M107.54 238.387C101.67 242.9 96.3136 248.044 91.5657 253.725C91.5657 253.725 82.7232 252.431 79.9028 256.384C77.0824 260.337 69.8235 276.924 69.8235 276.924C69.2847 276.834 68.7854 276.584 68.3902 276.207C65.6045 273.896 68.3902 265.966 71.8 259.343C72.7543 257.429 73.0157 255.244 72.5398 253.159C76.4698 247.784 76.3889 240.444 76.3889 240.444L77.9956 239.705L90.6063 220.228L107.54 238.387Z" fill="#FFB6AD"/>
<path d="M441.777 32.7428C442.375 34.0159 442.01 35.5335 440.898 36.3954C436.529 39.7591 425.71 48.6363 421.433 57.0511C421.156 57.3863 411.966 68.7256 412.579 75.9037L395.726 82.7581C394.651 77.1289 392.836 65.2926 394.154 55.7334C394.825 50.8556 396.316 46.5788 399.136 44.0012C401.702 41.6894 404.522 39.2158 407.528 36.8809C416.659 29.7606 427.247 23.7731 435.755 25.8422C435.755 25.8306 438.297 25.4492 441.777 32.7428Z" fill="#FFB6AD"/>
</svg>