<svg width="120" height="120" viewBox="0 0 120 120" fill="none" xmlns="http://www.w3.org/2000/svg">
<path d="M61.6624 115.335C51.1216 115.335 40.8698 112.359 32.0141 106.729C23.3969 101.249 16.4671 93.518 11.9759 84.3693C8.22997 76.7571 6.32982 68.5616 6.32982 60.0129C6.32982 56.301 6.69854 52.6105 7.42796 48.9986C4.74763 47.3133 3 44.3237 3 41.0422V36.1593C3 30.9826 7.21221 26.7704 12.389 26.7704H17.4201C21.2237 21.7087 25.8158 17.3747 31.0914 13.8721C40.16 7.84925 50.7319 4.66504 61.6621 4.66504C67.8894 4.66504 73.9917 5.69104 79.8004 7.71365C81.9942 8.47313 84.1863 9.39827 86.3246 10.4648L95.9225 10.0384C95.9688 10.0364 96.0151 10.0353 96.0616 10.0353C96.842 10.0353 97.596 10.3272 98.174 10.856C98.7867 11.4162 99.1514 12.1973 99.1882 13.0264L99.4805 19.6169C110.632 30.0623 117 44.7026 117 59.9973C117 66.1498 115.999 72.1864 114.024 77.9394C111.28 85.9582 106.626 93.3615 100.568 99.3469C90.1492 109.656 76.3316 115.335 61.6624 115.335Z" fill="white"/>
<path d="M114.048 59.9978C114.048 65.9233 113.062 71.6191 111.241 76.9241L98.5454 97.121C89.1145 106.453 76.1475 112.206 61.8396 112.206C41.2621 112.206 23.4594 100.298 14.9624 82.9906L9.63672 60.0134V59.9978C9.63672 41.8301 18.9215 25.8269 32.9996 16.4796C32.9996 16.4796 43.1447 17.6835 53.8064 17.6835C59.7996 17.6835 78.9483 10.6689 78.9483 10.6689C99.3799 17.7472 114.048 37.1617 114.048 59.9978Z" fill="#8F8FEF"/>
<path d="M28.681 70.5913C28.681 77.4765 23.0996 83.0525 16.2196 83.0525C15.7969 83.0525 15.3746 83.0316 14.9624 82.9899C11.5511 76.0577 9.63672 68.2597 9.63672 60.0129C11.5458 58.8237 13.7993 58.1353 16.2196 58.1353C23.0996 58.1353 28.681 63.7112 28.681 70.5913Z" fill="#F05D6A"/>
<path d="M111.241 76.9237C108.601 84.6332 104.21 91.5238 98.5449 97.1207C93.2662 95.6758 89.3906 90.8455 89.3906 85.1079C89.3906 78.2278 94.972 72.6519 101.852 72.6519C105.602 72.6516 108.967 74.3053 111.241 76.9237Z" fill="#FFD2A7"/>
<path d="M78.9487 10.669C77.9993 22.8538 67.8072 32.4463 55.3772 32.4463C45.0023 32.4463 36.1922 25.7697 33 16.4796C41.2623 10.9923 51.1781 7.79492 61.84 7.79492C67.833 7.7947 73.5864 8.80155 78.9487 10.669Z" fill="#FF899A"/>
<path d="M97.8438 86.0119H24.1523V40.2046C24.1523 39.2209 24.9499 38.4233 25.9336 38.4233H96.0625C97.0462 38.4233 97.8438 39.2209 97.8438 40.2046V86.0119Z" fill="#401A49"/>
<rect x="27.1719" y="42.6406" width="66.9881" height="43.9486" fill="#FFF5EE"/>
<path d="M21.3944 90.9086L18.1009 86.8883C17.7384 86.4459 18.2657 85.9253 19.0759 85.9253H103.323C104.175 85.9253 104.697 86.4953 104.252 86.9386L100.26 90.9083C100.261 90.9086 21.5801 91.0219 21.3944 90.9086Z" fill="#401A49"/>
<path d="M101.258 90.123H21.0928C21.034 90.123 20.9863 90.0752 20.9863 90.0166C20.9863 89.958 21.034 89.9102 21.0928 89.9102H101.257C101.316 89.9102 101.364 89.958 101.364 90.0166C101.364 90.0752 101.316 90.123 101.258 90.123Z" fill="#FFF5EE"/>
<rect x="29.8359" y="45.438" width="60.8615" height="38.6202" fill="white"/>
<rect x="29.8359" y="45.438" width="60.8615" height="5.05964" fill="#8F8FEF"/>
<path d="M83.9504 48.1451C83.9504 48.7091 83.4933 49.1662 82.9293 49.1662C82.3653 49.1662 81.9082 48.7091 81.9082 48.1451C81.9082 47.5811 82.3653 47.124 82.9293 47.124C83.4933 47.124 83.9504 47.5811 83.9504 48.1451Z" fill="#F05D6A"/>
<path d="M79.2903 48.1451C79.2903 48.7091 78.8331 49.1662 78.2691 49.1662C77.7052 49.1662 77.248 48.7091 77.248 48.1451C77.248 47.5811 77.7052 47.124 78.2691 47.124C78.8331 47.124 79.2903 47.5811 79.2903 48.1451Z" fill="#FF899A"/>
<path d="M88.6125 48.1451C88.6125 48.7091 88.1554 49.1662 87.5914 49.1662C87.0274 49.1662 86.5703 48.7091 86.5703 48.1451C86.5703 47.5811 87.0274 47.124 87.5914 47.124C88.1554 47.124 88.6125 47.5811 88.6125 48.1451Z" fill="#FFA766"/>
<path fill-rule="evenodd" clip-rule="evenodd" d="M33.5 58.5535H86.8126V53.3623H33.5V58.5535ZM86.6821 58.4231H33.6303V53.4928H86.6821V58.4231Z" fill="#FFA766"/>
<path fill-rule="evenodd" clip-rule="evenodd" d="M33.4121 82.0817H86.8133V60.4653H33.4121V82.0817ZM86.6828 81.9512H33.5424V60.5958H86.6828V81.9512Z" fill="#FFA766"/>
<path fill-rule="evenodd" clip-rule="evenodd" d="M38.3125 79.7515L38.4058 79.8422L45.3841 72.6871L51.3773 76.2129L51.4236 76.2402L59.6688 66.931C61.556 68.9489 65.827 73.476 66.1488 73.4757C66.151 73.4757 66.1528 73.4755 66.1546 73.4751C66.181 73.4693 66.202 73.4506 66.2058 73.435C66.4364 73.1161 76.2674 66.3576 80.0361 63.7804L79.9621 63.6729C77.73 65.1996 66.8555 72.6463 66.1249 73.339C65.7126 73.1219 62.0922 69.3317 59.7151 66.7896L59.6661 66.7375L51.3971 76.0732L45.4061 72.5488L45.362 72.523L38.3125 79.7515ZM66.1082 73.3557C66.0991 73.3615 66.0911 73.3709 66.0869 73.3836C66.0889 73.3778 66.096 73.3686 66.1082 73.3557Z" fill="#FFA766"/>
<path d="M39.1595 79.8415C39.1595 80.3073 38.7819 80.6849 38.3161 80.6849C37.8503 80.6849 37.4727 80.3073 37.4727 79.8415C37.4727 79.3757 37.8503 78.998 38.3161 78.998C38.7819 78.998 39.1595 79.3757 39.1595 79.8415Z" fill="#8F8FEF"/>
<circle cx="59.6227" cy="66.8786" r="0.843422" fill="#FF899A"/>
<path d="M80.6654 63.86C80.6654 64.3258 80.2877 64.7034 79.8219 64.7034C79.3561 64.7034 78.9785 64.3258 78.9785 63.86C78.9785 63.3942 79.3561 63.0166 79.8219 63.0166C80.2875 63.0166 80.6654 63.3942 80.6654 63.86Z" fill="#8F8FEF"/>
<path fill-rule="evenodd" clip-rule="evenodd" d="M82.3379 77.6766H84.6083V75.4058H82.3379V77.6766ZM84.5353 77.6034H82.4107V75.4792H84.5353V77.6034Z" fill="#FFA766"/>
<path fill-rule="evenodd" clip-rule="evenodd" d="M82.3379 74.7467H84.6083V72.4761H82.3379V74.7467ZM84.5353 74.6735H82.4107V72.5491H84.5353V74.6735Z" fill="#FFA766"/>
<path fill-rule="evenodd" clip-rule="evenodd" d="M82.3379 80.4325H84.6083V78.1616H82.3379V80.4325ZM84.5353 80.3592H82.4107V78.2351H84.5353V80.3592Z" fill="#FFA766"/>
<path d="M50.2949 11.9663L70.543 15.5885L66.8174 36.415L46.5692 32.7928L50.2949 11.9663Z" fill="#FFF5EE"/>
<path d="M61.1885 17.1734C61.1885 17.8774 60.6176 18.4483 59.9136 18.4483C59.2093 18.4483 58.6387 17.8774 58.6387 17.1734C58.6387 16.4691 59.2096 15.8984 59.9136 15.8984C60.6176 15.8984 61.1885 16.4693 61.1885 17.1734Z" fill="#401A49"/>
<path d="M51.6762 20.7209C51.4378 20.6991 51.1866 20.6812 50.8843 20.6536C50.7182 20.6383 50.654 20.4646 50.6678 20.3159C50.6861 20.1141 50.7972 20.0596 51.0504 20.0825L53.0935 20.27C53.2315 20.2827 53.398 20.3595 53.3778 20.5828C53.3624 20.7489 53.2342 20.8767 53.0906 20.866C53.0365 20.8614 52.9872 20.8411 52.9307 20.836L52.2705 20.7754L51.9975 23.6626C51.9904 23.7445 52.0011 23.8205 51.9929 23.9127C51.9791 24.0609 51.9221 24.2286 51.6531 24.2041C51.3414 24.1756 51.3754 23.9414 51.3928 23.7568L51.6762 20.7209Z" fill="#401A49"/>
<path fill-rule="evenodd" clip-rule="evenodd" d="M56.7403 23.036C56.8218 22.148 56.2605 21.3683 55.2977 21.2796C54.4175 21.199 53.6422 21.8561 53.5607 22.7447C53.4715 23.7175 54.1394 24.4291 55.0022 24.5082C55.8621 24.587 56.6512 24.009 56.7403 23.036ZM56.1516 22.9818C56.0875 23.6781 55.5954 24.0078 55.0503 23.9573C54.436 23.9014 54.0927 23.449 54.1523 22.7986C54.2047 22.2224 54.6128 21.7746 55.2449 21.8327C55.8797 21.8908 56.2041 22.4056 56.1516 22.9818Z" fill="#401A49"/>
<path fill-rule="evenodd" clip-rule="evenodd" d="M61.9468 22.3468C61.7482 22.0316 61.3744 21.837 60.9749 21.8002C60.0939 21.7196 59.3729 22.3508 59.2878 23.2773C59.2057 24.176 59.7207 24.941 60.6071 25.022C61.0473 25.0628 61.5022 24.9156 61.7985 24.6645C61.8259 24.9274 61.9105 25.1058 62.0715 25.1205C62.1453 25.1272 62.2478 25.0834 62.3548 25.0376C62.3677 25.0321 62.3805 25.0266 62.3935 25.0212C62.4736 24.9869 62.552 24.9555 62.637 24.9243C62.7221 24.8983 62.8252 24.8203 62.8383 24.6767C62.8566 24.4745 62.7161 24.3792 62.5994 24.3812C62.5215 24.3821 62.4547 24.4091 62.3794 24.4438L62.3311 24.4679C62.332 24.3156 62.3525 24.0308 62.383 23.6981C62.4151 23.347 62.5796 21.6147 62.656 20.9479C62.6742 20.9158 62.6854 20.8755 62.6916 20.8145C62.7065 20.6504 62.629 20.5349 62.4859 20.5222C62.3735 20.5129 62.2681 20.5061 62.1664 20.4996C62.0318 20.4909 61.9039 20.4827 61.7754 20.4696C61.7162 20.4489 61.6677 20.4443 61.6346 20.4412L61.6338 20.4411C61.4957 20.4284 61.3815 20.5186 61.3652 20.6954C61.3474 20.89 61.4772 21.0205 61.6001 21.0316C61.6435 21.0357 61.6849 21.0328 61.7253 21.0299C61.7635 21.0272 61.8008 21.0246 61.8379 21.028L62.0559 21.0479C62.0065 21.6704 61.9631 22.17 61.9468 22.3468ZM61.8125 23.7876C61.6627 24.2595 61.1513 24.5171 60.701 24.4759C60.1152 24.422 59.8095 23.8671 59.8585 23.3296C59.9171 22.6944 60.3731 22.3052 60.9415 22.3577C61.4256 22.4021 61.7898 22.8198 61.8524 23.3241C61.8475 23.3787 61.8442 23.4192 61.8403 23.4664C61.8346 23.5363 61.8277 23.6209 61.8125 23.7876Z" fill="#401A49"/>
<path fill-rule="evenodd" clip-rule="evenodd" d="M66.482 23.9291C66.5635 23.0412 66.0031 22.2614 65.0394 22.1733C64.159 22.0922 63.3844 22.7495 63.3029 23.6377C63.2138 24.6107 63.8811 25.3223 64.7439 25.4018C65.6038 25.4802 66.3929 24.9019 66.482 23.9291ZM65.8937 23.8752C65.8294 24.5715 65.3369 24.901 64.7918 24.8512C64.1775 24.7946 63.8346 24.3424 63.8943 23.6918C63.9468 23.1158 64.3547 22.668 64.9864 22.7261C65.6216 22.7842 65.9463 23.299 65.8937 23.8752Z" fill="#401A49"/>
<path d="M75.6875 14.0762L96.2359 13.1629L97.1753 34.2983L76.6269 35.2116L75.6875 14.0762Z" fill="#FFF5EE"/>
<path d="M88.0889 16.4082C88.0889 17.1123 87.5183 17.6832 86.814 17.6832C86.11 17.6832 85.5391 17.1123 85.5391 16.4082C85.5391 15.7042 86.11 15.1333 86.814 15.1333C87.518 15.1333 88.0889 15.704 88.0889 16.4082Z" fill="#401A49"/>
<path fill-rule="evenodd" clip-rule="evenodd" d="M79.0068 22.1179C79.1876 23.0317 79.3442 23.9383 79.4953 24.8329C79.5131 24.9389 79.5221 25.0273 79.5306 25.1098C79.5382 25.1836 79.5453 25.2527 79.5577 25.3257C79.5902 25.5181 79.687 25.5987 79.8928 25.5635C80.0289 25.5406 80.1637 25.5332 80.2966 25.5259C80.4258 25.5188 80.5533 25.5118 80.6783 25.4907C82.3204 25.2126 82.5985 23.8357 82.4524 22.9713C82.289 22.003 81.6202 21.1778 80.1246 21.431C80.0028 21.4516 79.8847 21.4815 79.7671 21.5114C79.6521 21.5405 79.5376 21.5696 79.421 21.5895C79.3648 21.599 79.3115 21.5976 79.2599 21.5961C79.2115 21.5948 79.1645 21.5934 79.1179 21.6013C78.9253 21.634 78.8735 21.7592 78.8984 21.9039C78.9084 21.9651 78.957 22.0538 79.0068 22.1179ZM81.8925 23.2076C81.9655 23.6355 81.8711 24.7134 80.614 24.9262C80.5151 24.9429 80.2272 24.9832 80.0785 24.9694L79.5824 22.1277C79.7356 22.0916 79.997 22.0344 80.1263 22.0126C81.1045 21.8469 81.7025 22.0823 81.8925 23.2076Z" fill="#401A49"/>
<path fill-rule="evenodd" clip-rule="evenodd" d="M86.3261 22.9144C86.1766 22.0347 85.435 21.4244 84.482 21.5854C83.6099 21.733 83.0283 22.5668 83.1777 23.4468C83.3407 24.41 84.1683 24.9266 85.0226 24.7818C85.8743 24.6378 86.4886 23.8776 86.3261 22.9144ZM85.7427 23.0126C85.8589 23.7017 85.4677 24.1464 84.9278 24.2377C84.3195 24.3405 83.8722 23.9916 83.7631 23.3477C83.6664 22.7773 83.9454 22.2393 84.5715 22.1333C85.2007 22.0269 85.6458 22.4422 85.7427 23.0126Z" fill="#401A49"/>
<path d="M87.5265 23.8976C87.5209 23.8043 87.5154 23.6954 87.4929 23.5614C87.4481 23.2975 87.4078 23.0729 87.3604 22.8253C87.3568 22.8023 87.3497 22.7774 87.1475 21.7035C87.1057 21.7189 87.0482 21.7336 86.9667 21.7474C86.845 21.7683 86.6882 21.7189 86.6546 21.5181C86.6234 21.3357 86.7143 21.2242 86.8487 21.2012C86.9022 21.1925 86.9563 21.2039 87.0117 21.1941C87.0801 21.183 87.1509 21.1687 87.2181 21.1493C87.2905 21.132 87.3684 21.1137 87.4243 21.1046C87.5608 21.0812 87.681 21.1596 87.7091 21.3246C87.7158 21.3653 87.7233 21.4234 87.7269 21.4753C87.9231 21.2155 88.2352 20.9507 88.6739 20.8768C89.5306 20.7316 90.0686 21.2308 90.2347 22.2114C90.2846 22.508 90.2623 22.8843 90.1919 23.1909C90.2638 23.1553 90.3367 23.1221 90.3841 23.1089C90.566 23.0602 90.68 23.1319 90.7116 23.3194C90.7279 23.4155 90.7152 23.5563 90.5546 23.6433L90.2917 23.7529C89.9724 23.9138 89.9301 23.957 89.815 23.9713C89.6531 23.9989 89.5436 23.8428 89.5206 23.709C89.5028 23.6026 89.5104 23.4788 89.5712 23.3744C89.723 23.1003 89.7246 22.7095 89.6567 22.3092C89.5792 21.8507 89.3093 21.3326 88.7362 21.4295C88.3383 21.4967 88.0037 21.8325 87.8177 22.1513C87.8407 22.3032 87.8647 22.4579 87.8906 22.6129C87.9273 22.8756 87.9689 23.137 88.0143 23.4035C88.027 23.4794 88.0373 23.5589 88.0602 23.6453L88.1255 23.6137C88.1591 23.5975 88.1954 23.5805 88.2232 23.5761C88.4056 23.5449 88.5176 23.6231 88.5467 23.7925C88.5895 24.0488 88.3719 24.1169 88.2009 24.1663C88.1535 24.1795 88.1088 24.1924 88.0803 24.2075C87.9763 24.257 87.907 24.2941 87.8485 24.3037C87.6483 24.3378 87.5739 24.2518 87.5459 24.0873C87.5352 24.0258 87.5292 23.959 87.5265 23.8976Z" fill="#401A49"/>
<path fill-rule="evenodd" clip-rule="evenodd" d="M93.502 22.4635C93.4466 22.5827 93.193 22.8394 92.6631 22.9291C92.326 22.9861 91.8969 22.8864 91.6803 22.4045C91.9714 22.2831 92.2586 22.1709 92.5427 22.0599C92.9261 21.9102 93.304 21.7625 93.6791 21.5972C93.8269 21.5328 93.9271 21.4148 93.9017 21.265C93.8859 21.1737 93.836 21.0755 93.7605 21.0301C93.5406 20.4708 92.9726 20.1492 92.3211 20.2592C91.4164 20.4127 90.8388 21.175 91.0078 22.1745C91.1241 22.8632 91.7484 23.6441 92.753 23.474C93.3179 23.3782 93.6953 23.0801 93.9322 22.7715C94.0415 22.633 94.062 22.5225 94.0513 22.4593C94.0233 22.2923 93.9062 22.2001 93.7385 22.2286C93.6497 22.2436 93.551 22.3515 93.502 22.4635ZM92.3957 20.8099C92.7659 20.7473 93.0915 20.9613 93.2611 21.2556C92.9548 21.3859 92.6502 21.5056 92.3504 21.6234C92.0813 21.7292 91.8161 21.8334 91.5571 21.9423C91.5104 21.3558 91.8201 20.9072 92.3957 20.8099Z" fill="#401A49"/>
<path d="M45.7188 47.3018H8.97852C7.50898 47.3018 6.30664 46.0995 6.30664 44.63V32.5718C6.30664 31.1022 7.50898 29.8999 8.97852 29.8999H45.7188C47.1883 29.8999 48.3907 31.1022 48.3907 32.5718V44.63C48.3907 46.0995 47.1883 47.3018 45.7188 47.3018Z" fill="#FFA766"/>
<path d="M43.1083 34.4945H11.7672C11.572 34.4945 11.4121 34.3346 11.4121 34.1393C11.4121 33.944 11.572 33.7842 11.7672 33.7842H43.1083C43.3036 33.7842 43.4635 33.944 43.4635 34.1393C43.4635 34.3346 43.3036 34.4945 43.1083 34.4945Z" fill="white"/>
<path d="M43.1083 37.2469H11.7672C11.572 37.2469 11.4121 37.087 11.4121 36.8918C11.4121 36.6965 11.572 36.5366 11.7672 36.5366H43.1083C43.3036 36.5366 43.4635 36.6965 43.4635 36.8918C43.4635 37.087 43.3036 37.2469 43.1083 37.2469Z" fill="white"/>
<path d="M43.1083 39.9988H11.7672C11.572 39.9988 11.4121 39.839 11.4121 39.6437C11.4121 39.4484 11.572 39.2886 11.7672 39.2886H43.1083C43.3036 39.2886 43.4635 39.4484 43.4635 39.6437C43.4635 39.8392 43.3036 39.9988 43.1083 39.9988Z" fill="white"/>
<path d="M33.3417 42.7515H11.5455C11.472 42.7515 11.4121 42.6914 11.4121 42.6182V42.086C11.4121 42.0128 11.4722 41.9526 11.5455 41.9526H33.3417C33.4152 41.9526 33.4751 42.0128 33.4751 42.086V42.6184C33.4751 42.6914 33.4152 42.7515 33.3417 42.7515Z" fill="white"/>
<path d="M29.4796 63.8572H18.0293V46.0142H18.29V63.5964H29.4796V63.8572Z" fill="#FFA766"/>
<path d="M30.6334 63.7489C30.6334 64.5948 29.9476 65.2806 29.1017 65.2806C28.2559 65.2806 27.5703 64.5948 27.5703 63.7489C27.5703 62.9031 28.2559 62.2173 29.1017 62.2173C29.9478 62.2173 30.6334 62.9031 30.6334 63.7489Z" fill="#FFA766"/>
<rect x="42.4414" y="86.7583" width="37.6892" height="20.4543" fill="#FF899A"/>
<path d="M68.7168 88.6671L73.0902 80.1338L73.5168 88.7737L68.7168 88.6671Z" fill="#FF899A"/>
<path fill-rule="evenodd" clip-rule="evenodd" d="M56.6116 91.4656C58.1315 92.6223 59.1036 94.296 59.3621 96.185C59.6144 98.0738 59.1161 99.9506 57.9652 101.464C57.8545 101.612 57.7376 101.753 57.6145 101.889C56.4823 103.163 54.9442 103.981 53.2397 104.215C52.9198 104.258 52.5936 104.282 52.2736 104.282C50.7168 104.282 49.2155 103.778 47.9603 102.818C45.9729 101.298 44.9146 98.8122 45.1976 96.3264C45.2039 96.2835 45.2468 96.2587 45.2838 96.2587L52.1815 97.0525L51.5538 95.0651L50.0894 90.4381C50.0771 90.3951 50.1016 90.3519 50.1386 90.3396C52.3476 89.6383 54.7718 90.0627 56.6116 91.4656ZM57.547 101.735C57.6517 101.618 57.7501 101.495 57.8423 101.372C58.9685 99.8891 59.4545 98.0554 59.2083 96.2093C58.9562 94.3573 58.0024 92.7205 56.5195 91.5883C55.2888 90.6531 53.7997 90.1609 52.2861 90.1609C51.6092 90.1609 50.9263 90.2593 50.2617 90.4623L51.7508 95.1755L52.366 97.12C52.372 97.1447 52.366 97.1692 52.3476 97.1877C52.3353 97.2122 52.3046 97.2184 52.2799 97.2184L45.3455 96.4186C45.0932 98.8306 46.127 101.224 48.059 102.695C49.5421 103.827 51.3694 104.313 53.2215 104.061C54.9134 103.827 56.4333 103.009 57.547 101.735Z" fill="#401A49"/>
<path d="M49.6806 89.9829L51.8072 96.7439L44.7383 95.9002C44.8837 94.6752 45.3537 93.4715 46.1631 92.4221C47.0922 91.2171 48.3295 90.3948 49.6806 89.9829Z" fill="#401A49"/>
<rect x="61.8906" y="91.6187" width="15.8578" height="0.928253" fill="#401A49"/>
<rect x="61.8906" y="95.2544" width="15.8578" height="0.928253" fill="#401A49"/>
<rect x="61.8906" y="97.3428" width="15.8578" height="0.928253" fill="#401A49"/>
<rect x="61.8906" y="99.354" width="15.8578" height="0.928253" fill="#401A49"/>
<rect x="61.8906" y="101.21" width="10.559" height="0.966995" fill="#401A49"/>
<ellipse cx="105.755" cy="57.4995" rx="7.22473" ry="7.22495" transform="rotate(-80.7524 105.755 57.4995)" fill="#FFA766"/>
<path fill-rule="evenodd" clip-rule="evenodd" d="M99.4004 58.1999C99.4004 62.2015 102.656 65.4567 106.657 65.4567C110.658 65.4567 113.914 62.2015 113.914 58.1999C113.914 54.1983 110.659 50.9429 106.657 50.9429C102.656 50.9429 99.4004 54.1986 99.4004 58.1999ZM99.5306 58.1999C99.5306 54.2702 102.728 51.0733 106.657 51.0733C110.586 51.0733 113.783 54.2702 113.783 58.1999C113.783 62.1293 110.586 65.3262 106.657 65.3262C102.728 65.3262 99.5306 62.1293 99.5306 58.1999Z" fill="white"/>
<path d="M113.849 58.2649H99.5106C99.4747 58.2649 99.4453 58.2356 99.4453 58.1997C99.4453 58.1639 99.4747 58.1345 99.5106 58.1345H113.849C113.885 58.1345 113.914 58.1639 113.914 58.1997C113.914 58.2356 113.885 58.2649 113.849 58.2649Z" fill="white"/>
<path d="M106.758 65.4231C106.722 65.4231 106.693 65.3942 106.693 65.3581L106.626 51.0415C106.626 51.0057 106.655 50.9763 106.691 50.9761H106.691C106.727 50.9761 106.756 51.005 106.757 51.0411L106.823 65.3577C106.823 65.3935 106.794 65.4229 106.758 65.4231H106.758Z" fill="white"/>
<path d="M105.866 65.4176C105.858 65.4176 105.849 65.4158 105.841 65.4115C104.814 64.8921 103.924 63.7623 103.399 62.3126C102.957 61.0945 102.747 59.6269 102.774 57.951C102.799 56.3906 103.026 55.0353 103.45 53.922C103.964 52.569 105.125 51.4833 106.048 51.0079C106.075 50.9943 106.11 51.0046 106.124 51.0324C106.138 51.06 106.127 51.0941 106.1 51.1083C105.031 51.659 103.985 52.8326 103.555 53.9623C103.136 55.0632 102.911 56.4058 102.886 57.9532C102.86 59.6151 103.068 61.0691 103.505 62.2745C104.02 63.6973 104.891 64.8041 105.892 65.3113C105.92 65.3254 105.931 65.3592 105.917 65.3871C105.907 65.4062 105.887 65.4176 105.866 65.4176Z" fill="white"/>
<path d="M107.573 65.3177C107.556 65.3177 107.539 65.3105 107.527 65.2963C107.506 65.2709 107.509 65.2333 107.534 65.2121C110.639 62.6306 110.538 59.0038 110.191 56.5C110.016 55.2389 109.684 54.1474 109.205 53.2557C108.652 52.2284 107.88 51.4497 107.031 51.0636C107.001 51.0501 106.988 51.0147 107.001 50.9846C107.015 50.9543 107.051 50.9405 107.08 50.955C107.953 51.3518 108.745 52.1487 109.31 53.1991C109.796 54.1033 110.133 55.2084 110.309 56.4835C110.66 59.0151 110.761 62.6841 107.611 65.3036C107.6 65.3134 107.586 65.3177 107.573 65.3177Z" fill="white"/>
<path d="M99.4656 58.1984C99.4589 58.1984 99.4522 58.1973 99.4458 58.1953C99.4115 58.1842 99.3926 58.1474 99.4035 58.1134C99.9971 56.2678 101.311 54.784 102.833 54.2405C103.333 54.0619 103.903 53.941 104.628 53.86C106.449 53.6549 108.146 53.7992 109.672 54.2866C111.111 54.7466 112.946 55.9687 113.776 58.0201C113.79 58.0535 113.773 58.0913 113.74 58.1049C113.707 58.1183 113.668 58.1027 113.655 58.0691C112.842 56.0598 111.044 54.8617 109.632 54.4108C108.124 53.9288 106.445 53.7876 104.643 53.9893C103.929 54.0695 103.367 54.1882 102.877 54.3632C101.393 54.8935 100.109 56.3455 99.5277 58.153C99.5188 58.1811 99.4932 58.1984 99.4656 58.1984Z" fill="white"/>
<path d="M105.815 62.4144C105.228 62.4144 104.664 62.3512 104.123 62.2247C102.38 61.8172 100.239 60.5559 99.4547 58.2374C99.4429 58.2033 99.4614 58.1663 99.4955 58.1548C99.5296 58.1421 99.5667 58.1617 99.5781 58.1955C100.346 60.4633 102.444 61.6981 104.152 62.0976C105.874 62.5004 107.844 62.2492 110.006 61.351C111.701 60.647 113.069 59.5114 113.759 58.2351C113.776 58.2038 113.815 58.1915 113.847 58.2089C113.879 58.226 113.89 58.2654 113.874 58.2973C113.169 59.5994 111.778 60.7563 110.056 61.4712C108.544 62.0994 107.125 62.4144 105.815 62.4144Z" fill="white"/>
<path fill-rule="evenodd" clip-rule="evenodd" d="M98.9603 35.5063C101.264 35.5063 103.309 36.6499 104.544 38.4056C105.339 39.5168 105.806 40.8806 105.806 42.3517C105.806 46.1262 102.735 49.1973 98.9603 49.1973C97.43 49.1973 96.0125 48.6925 94.869 47.8388C93.1939 46.5879 92.1094 44.5958 92.1094 42.3517C92.1094 38.5774 95.1858 35.5063 98.9603 35.5063ZM94.9119 47.7206C96.0395 48.5689 97.4462 49.0737 98.9603 49.0737C102.665 49.0737 105.682 46.0618 105.682 42.3517C105.682 40.8913 105.215 39.5435 104.431 38.443C103.207 36.7356 101.21 35.6241 98.9601 35.6241C95.2502 35.6241 92.2327 38.6416 92.2327 42.3515C92.2327 44.5422 93.2852 46.4911 94.9119 47.7206Z" fill="white"/>
<path d="M104.06 71.7567C103.505 71.7567 103.055 71.3065 103.055 70.7514C103.055 70.1961 103.505 69.7461 104.06 69.7461C104.615 69.7461 105.065 70.1961 105.065 70.7514C105.065 71.3067 104.615 71.7567 104.06 71.7567Z" fill="#FFF5EE"/>
<path d="M104.06 75.0467C103.505 75.0467 103.055 74.5967 103.055 74.0414C103.055 73.4863 103.505 73.0361 104.06 73.0361C104.615 73.0361 105.065 73.4861 105.065 74.0414C105.065 74.5967 104.615 75.0467 104.06 75.0467Z" fill="#FFF5EE"/>
<path d="M104.06 75.0467C103.505 75.0467 103.055 74.5967 103.055 74.0414C103.055 73.4863 103.505 73.0361 104.06 73.0361C104.615 73.0361 105.065 73.4861 105.065 74.0414C105.065 74.5967 104.615 75.0467 104.06 75.0467Z" fill="#FFF5EE"/>
<path d="M104.06 78.3368C103.505 78.3368 103.055 77.8868 103.055 77.3315C103.055 76.7764 103.505 76.3262 104.06 76.3262C104.615 76.3262 105.065 76.7764 105.065 77.3315C105.065 77.8868 104.615 78.3368 104.06 78.3368Z" fill="#FFF5EE"/>
<ellipse cx="27.2065" cy="94.7128" rx="1.00529" ry="1.00529" fill="#FFF5EE"/>
<ellipse cx="30.4955" cy="94.7128" rx="1.00529" ry="1.00529" fill="#FFF5EE"/>
<ellipse cx="30.4955" cy="94.7128" rx="1.00529" ry="1.00529" fill="#FFF5EE"/>
<path d="M34.7918 94.7128C34.7918 95.2681 34.3418 95.7181 33.7865 95.7181C33.2315 95.7181 32.7812 95.2681 32.7812 94.7128C32.7812 94.1577 33.2312 93.7075 33.7865 93.7075C34.3416 93.7075 34.7918 94.1575 34.7918 94.7128Z" fill="#FFF5EE"/>
<circle cx="34.31" cy="23.685" r="1.00529" fill="#FFF5EE"/>
<circle cx="37.599" cy="23.685" r="1.00529" fill="#FFF5EE"/>
<circle cx="37.599" cy="23.685" r="1.00529" fill="#FFF5EE"/>
<circle cx="40.8901" cy="23.685" r="1.00529" fill="#FFF5EE"/>
</svg>
