<svg width="120" height="120" viewBox="0 0 120 120" fill="none" xmlns="http://www.w3.org/2000/svg">
<path d="M61.0519 115.463C60.7914 115.463 60.5313 115.432 60.2768 115.371L57.259 114.647C56.8206 114.66 56.3822 114.666 55.9437 114.666C53.5239 114.666 51.0794 114.499 48.6776 114.17C43.1932 113.417 37.896 111.816 32.9312 109.412C32.6941 109.302 32.4634 109.188 32.2386 109.072C32.1192 109.013 31.9689 108.937 31.8251 108.862C26.6639 106.224 21.9679 102.743 17.8922 98.5295C8.42005 88.8051 2.93249 75.2948 3.00063 61.7231C3.00063 52.9819 5.17708 44.319 9.29464 36.6711C12.4713 30.76 16.6921 25.5613 21.8395 21.2206C21.89 21.1774 21.9397 21.1367 21.988 21.0975C24.3559 19.1158 26.9082 17.335 29.5801 15.8007C29.6451 15.7598 29.7101 15.721 29.7756 15.6836C34.14 13.1957 38.8231 11.3519 43.7057 10.1967C43.7057 10.1967 43.8237 10.1671 43.8465 10.1616C47.7803 9.24132 51.8505 8.77441 55.9435 8.77441C58.4174 8.77441 60.8929 8.94764 63.3415 9.29097V7.85596C63.3415 6.02284 64.8277 4.53662 66.6608 4.53662H94.6278C96.4609 4.53662 97.9472 6.02284 97.9472 7.85596V29.4844C102.355 35.2312 105.58 41.893 107.317 48.8661C108.101 52.0153 108.598 55.2719 108.793 58.5469C108.803 58.6453 108.809 58.7382 108.812 58.8333C108.813 58.8446 108.814 58.856 108.814 58.8673L113.378 58.4496C113.479 58.4398 113.58 58.4356 113.681 58.4356C114.603 58.4356 115.489 58.8203 116.12 59.5052C116.821 60.2647 117.128 61.3069 116.95 62.3247L109.773 103.501C109.664 104.126 109.383 104.69 108.98 105.141L107.703 106.88C107.19 107.58 106.423 108.051 105.566 108.192L61.59 115.419C61.4119 115.448 61.2318 115.463 61.0519 115.463Z" fill="white"/>
<path d="M105.799 61.9548C105.799 62.2149 105.799 62.4749 105.794 62.7294C105.772 64.0239 105.705 65.3018 105.584 66.5633C105.584 66.6132 105.578 66.6573 105.572 66.7016C105.085 71.8743 103.802 76.809 101.844 81.395C101.827 81.4447 101.805 81.489 101.783 81.5389C98.3475 89.5219 92.8873 96.4205 86.0385 101.588C82.9516 103.917 79.5879 105.897 75.9976 107.457C75.2673 107.778 74.5317 108.077 73.7849 108.359C68.8003 110.256 63.4341 111.369 57.8301 111.546C57.277 111.568 56.7237 111.579 56.1704 111.579C53.8579 111.579 51.5788 111.418 49.3547 111.114C44.1212 110.395 39.1534 108.862 34.5782 106.644C34.3736 106.55 34.1743 106.45 33.9809 106.351C33.8482 106.285 33.7152 106.218 33.5881 106.152C28.6977 103.651 24.2829 100.359 20.5044 96.4538C18.6733 94.562 16.9914 92.5204 15.4758 90.3573C14.6128 89.1292 13.8105 87.8567 13.0638 86.5457C8.91459 79.2985 6.54688 70.9006 6.54688 61.955C6.54688 53.4576 8.68236 45.4636 12.4441 38.4765C15.4259 32.9277 19.4424 28.0042 24.2221 23.9765C24.2664 23.9378 24.3105 23.9046 24.3493 23.8715C26.5898 21.996 28.9963 20.3197 31.5412 18.8648C31.58 18.8372 31.6187 18.815 31.6575 18.7929C35.6848 16.4971 40.0665 14.7544 44.6968 13.6589C44.7411 13.6478 44.7852 13.6369 44.8295 13.6258C48.4697 12.7739 52.2704 12.3257 56.1704 12.3257C71.4559 12.3257 85.1314 19.2353 94.2373 30.1062C98.9729 35.7657 102.48 42.5039 104.322 49.9005C105.058 52.8547 105.529 55.914 105.711 59.0507C105.717 59.1006 105.722 59.1447 105.722 59.1945C105.772 60.1072 105.799 61.031 105.799 61.9548Z" fill="#FFE5D2"/>
<path d="M105.584 66.5629C105.584 66.6127 105.578 66.6568 105.573 66.7011C102.901 65.8602 100.35 63.747 97.8165 60.2949C95.8747 57.6451 94.1707 54.735 92.5278 51.9191C89.6235 46.9512 86.625 41.8119 82.2157 38.0279C78.3985 34.7528 73.5522 32.5897 68.5679 31.9425C65.149 31.4998 61.6083 31.7379 58.1895 31.9645C53.6144 32.2689 48.8898 32.5842 44.4477 31.262C38.8214 29.5857 33.9918 25.1544 31.8454 19.6942C31.7403 19.4177 31.6352 19.1412 31.541 18.8644C31.5798 18.8368 31.6185 18.8145 31.6572 18.7925C31.7568 19.0802 31.8619 19.3623 31.9725 19.6444C34.108 25.066 38.9044 29.4639 44.4864 31.1291C48.9065 32.4401 53.6199 32.1304 58.1786 31.826C61.6086 31.5991 65.1546 31.3614 68.5846 31.804C73.5968 32.4568 78.4707 34.6308 82.3043 37.9225C86.7301 41.7233 89.7395 46.8682 92.6496 51.8525C94.2925 54.6629 95.9909 57.5674 97.9271 60.2172C100.433 63.631 102.95 65.7166 105.584 66.5629Z" fill="white"/>
<path d="M101.845 81.3949C101.828 81.4446 101.806 81.4889 101.784 81.5388H101.657C100.617 81.5388 99.5934 81.4172 98.6141 81.1627C93.0266 79.7353 89.5801 74.7289 88.0255 71.8686C86.493 69.0472 85.3978 65.9658 84.3355 62.9896C83.8045 61.496 83.2567 59.9524 82.6593 58.4644C80.4188 52.8548 77.813 49.1759 74.4661 46.8801C68.5686 42.836 60.7904 43.5443 55.3026 44.8497C54.4728 45.0487 53.6209 45.2701 52.802 45.4858C49.5657 46.3321 46.2187 47.2063 42.8662 46.8634C37.9591 46.3488 33.0852 43.0794 29.4949 37.8957C26.6293 33.7521 24.8479 28.9392 24.2227 23.9767C24.267 23.9379 24.3111 23.9048 24.3498 23.8716C24.9583 28.845 26.7398 33.6691 29.6053 37.8182C33.1736 42.9687 38.0143 46.2161 42.8827 46.7251C46.2132 47.0736 49.5434 46.1941 52.7686 45.3475C53.5873 45.1374 54.4394 44.9105 55.2692 44.7114C60.7848 43.4004 68.6074 42.6922 74.5433 46.7638C77.9123 49.0763 80.5348 52.7773 82.7918 58.4091C83.3892 59.9027 83.9369 61.4464 84.4682 62.94C85.5249 65.9162 86.6201 68.9866 88.1471 71.8025C89.6906 74.6405 93.1096 79.6195 98.6473 81.0302C99.6762 81.2952 100.749 81.4114 101.845 81.3949Z" fill="white"/>
<path d="M105.723 59.1943C104.489 58.9177 103.277 58.392 102.176 57.6341C99.6592 55.8861 97.7118 53.1089 96.2127 49.1423C95.5877 47.4882 95.0841 45.7566 94.5974 44.0858C94.1215 42.4537 93.6292 40.772 93.0207 39.1511C91.2947 34.5261 88.6781 30.6205 85.4583 27.8654C81.8072 24.7453 77.2318 23.0358 72.8947 23.1852C70.881 23.2571 68.8783 23.7106 66.9365 24.1477C65.1497 24.5516 63.2963 24.972 61.4376 25.0938C61.0891 25.1158 60.7349 25.127 60.3809 25.127C55.258 25.127 50.3124 22.7757 47.2696 18.8479C46.0746 17.3044 45.2116 15.523 44.6973 13.6587C44.7416 13.6475 44.7857 13.6366 44.83 13.6255C45.339 15.4733 46.1964 17.2325 47.3803 18.765C50.3952 22.6597 55.3023 24.9887 60.3809 24.9887C60.7293 24.9887 61.078 24.9776 61.432 24.9555C63.2796 24.8337 65.1218 24.4189 66.9089 24.015C68.8506 23.5724 70.8643 23.1188 72.8892 23.0469C73.0662 23.0413 73.2378 23.0413 73.4146 23.0413C77.6246 23.0413 82.0171 24.7453 85.5467 27.7603C88.7885 30.5319 91.4163 34.4542 93.1534 39.1068C93.7564 40.7277 94.2489 42.415 94.7301 44.0471C95.217 45.7179 95.7202 47.4439 96.3454 49.098C97.8281 53.0314 99.7643 55.7863 102.254 57.5179C103.327 58.2593 104.511 58.7737 105.711 59.0504C105.717 59.1003 105.723 59.1444 105.723 59.1943Z" fill="white"/>
<path d="M13.0497 86.5275C8.91147 79.2825 6.54688 70.8942 6.54688 61.9546C6.54688 53.4572 8.68236 45.4632 12.4441 38.4761C13.805 38.7637 15.1937 39.3059 16.5877 40.1357C19.0109 41.5685 21.3178 43.4607 22.4075 46.0552C23.5139 48.7106 23.1986 51.7643 22.3576 54.5139C21.5166 57.269 20.1834 59.8469 19.2596 62.5742C18.4741 64.8812 17.9818 67.2932 17.8045 69.7219C17.6718 71.4755 17.705 73.2737 18.2915 74.9278C19.1935 77.5001 13.0497 86.5275 13.0497 86.5275Z" fill="#F05D6A"/>
<path d="M22.6055 57.9008C19.984 56.3963 18.2121 53.6748 17.3627 50.7741C16.3135 47.1909 16.5901 43.1949 18.3266 39.8896C20.0631 36.5843 23.2902 34.048 26.9593 33.3573C27.0753 29.6339 28.8065 25.871 31.7455 23.5819C34.6848 21.293 38.5022 19.6545 42.1411 20.454C42.3715 20.5003 42.8242 20.1044 43.3815 19.8878C44.0686 19.6206 44.1768 19.5788 44.7201 19.4999C45.9111 19.3272 47.1272 19.3659 48.3164 19.534C49.9621 19.7667 51.5881 20.251 53.0106 21.1104C56.2131 23.0451 57.9507 27.1016 56.8773 30.744C60.332 34.5931 62.7233 39.7468 62.5031 44.914C62.2831 50.0814 59.5442 55.1913 55.09 57.8197C50.3695 60.6052 44.5373 60.3992 39.0604 60.1912C33.8287 59.9926 28.4402 59.8348 23.6511 57.7193L22.6055 57.9008Z" fill="#401A49"/>
<path d="M67.0798 107.385C67.0798 107.385 64.8448 107.977 61.4647 108.746C60.8673 108.884 60.2254 109.028 59.5617 109.172C59.0251 109.288 58.4664 109.41 57.8909 109.531C56.4302 109.836 54.8648 110.145 53.2438 110.444C51.9714 110.682 50.6657 110.903 49.3547 111.113C44.1212 110.394 39.1533 108.862 34.5782 106.643C34.3736 106.549 34.1743 106.45 33.9808 106.35C33.8481 106.284 33.7152 106.218 33.5881 106.151C28.6977 103.651 24.2829 100.359 20.5044 96.4532C18.6733 94.5613 16.9914 92.5198 15.4758 90.3567C14.6128 89.1285 13.8105 87.8561 13.0637 86.5451C12.8923 80.2217 13.0139 73.5333 13.9432 69.1132C14.8782 64.6708 18.3525 60.7042 22.1033 57.5841C26.7559 53.7171 31.8177 51.1503 32.9519 50.6026C33.1013 50.5251 33.1844 50.4863 33.1844 50.4863L43.0594 52.4172C43.0594 52.4172 43.1202 52.4392 43.2419 52.4947C43.9003 52.8044 46.4174 54.0933 51.8113 58.1209C52.1488 58.3754 52.4808 58.6355 52.8014 58.912C58.5659 63.8303 61.5976 72.1284 63.722 78.7838C64.2031 80.2885 64.6293 82.4516 65.0054 84.9355C65.5807 88.7251 66.0345 93.245 66.3718 97.2336C66.4548 98.2349 66.5321 99.1974 66.604 100.11C66.7147 101.593 66.8089 102.932 66.8806 104.044C67.0135 106.096 67.0798 107.385 67.0798 107.385Z" fill="#8F8FEF"/>
<path d="M55.9777 92.4246C55.927 92.4246 55.8778 92.3987 55.8497 92.3522C55.807 92.2814 55.8297 92.1897 55.9005 92.1469C57.4493 91.2133 59.1252 90.5226 60.8815 90.0943C60.9625 90.0742 61.0431 90.1245 61.0625 90.2042C61.0819 90.2844 61.0327 90.3652 60.9527 90.385C59.2256 90.8061 57.5773 91.4852 56.0548 92.4032C56.0305 92.4174 56.004 92.4246 55.9777 92.4246Z" fill="#401A49"/>
<path d="M56.0485 92.281C56.0448 92.281 56.041 92.2808 56.0367 92.2803C55.9546 92.2739 55.8931 92.202 55.8996 92.1196C56.5537 83.7529 53.791 75.3209 51.3532 67.8814C51.3274 67.803 51.3706 67.7186 51.4489 67.6928C51.5246 67.6665 51.6115 67.7095 51.6375 67.7883C54.0838 75.2544 56.8563 83.7164 56.1977 92.1427C56.1917 92.2213 56.1258 92.281 56.0485 92.281Z" fill="#401A49"/>
<path d="M43.2477 52.6212C43.1998 51.473 43.2419 51.1199 43.3256 49.9358C43.4034 48.8532 43.5289 47.7827 43.6906 46.7483C43.0865 46.5329 42.4646 45.9888 42.0458 45.4983C40.2158 43.3452 38.2242 41.336 36.0891 39.4819C35.8678 39.2904 35.6167 39.0932 35.3475 38.9317C34.8572 38.6207 34.3128 38.4354 33.8165 38.6505C33.6611 42.9386 33.338 47.2205 32.8535 51.4788C32.8535 51.4788 36.1855 62.1647 41.377 60.6377C46.5688 59.1107 43.2477 52.6212 43.2477 52.6212Z" fill="#FF899A"/>
<path d="M43.6908 46.7482C43.5293 47.7828 43.4038 48.8534 43.3258 49.9357C40.8737 49.7264 38.5474 48.4646 36.9686 46.5747C35.2822 44.5532 34.4628 41.856 34.6182 39.2307C34.8574 39.1171 35.0967 39.0154 35.3479 38.9316C35.6171 39.0931 35.8682 39.2903 36.0896 39.4818C38.2246 41.3359 40.216 43.3451 42.0462 45.4982C42.4648 45.9887 43.0867 46.5331 43.6908 46.7482Z" fill="#401A49"/>
<path d="M53.1126 33.0528C53.1126 33.0613 53.1128 33.0695 53.1128 33.078C53.1427 36.4701 52.5312 40.0186 51.1612 43.1302C50.2646 45.1657 48.7296 47.2161 46.3158 47.3284C40.0183 47.6214 35.4852 44.679 33.9781 38.9198C33.2126 39.2188 31.4423 39.2128 31.1791 39.1649C29.8993 38.9496 28.745 38.2619 28.4222 36.9161C27.878 34.6136 30.2762 32.7716 32.2138 33.2742C32.2077 33.2263 32.2077 33.1844 32.2017 33.1366C32.1779 32.8734 32.1659 32.6042 32.1659 32.3412C32.1659 26.564 36.8485 21.8813 42.6258 21.8813C43.5168 21.8813 44.3841 21.9949 45.2095 22.2042C50.182 23.4653 53.0596 28.0923 53.1126 33.0528Z" fill="#FF899A"/>
<path d="M33.1728 37.4141C33.1269 37.4141 33.0815 37.3927 33.0523 37.3531C32.892 37.1345 32.7016 36.9385 32.4872 36.7706C32.3267 36.6446 32.1721 36.55 32.0152 36.4814C31.4777 36.2456 30.8422 36.291 30.2814 36.3316C30.1878 36.3394 30.1275 36.2752 30.1215 36.1933C30.1155 36.1109 30.1776 36.0394 30.2598 36.0334C30.8547 35.99 31.5305 35.9424 32.135 36.2078C32.3153 36.2866 32.491 36.3939 32.672 36.5355C32.9076 36.7203 33.1166 36.9359 33.2932 37.1763C33.3424 37.2431 33.3277 37.3364 33.2614 37.3854C33.2344 37.4045 33.2037 37.4141 33.1728 37.4141Z" fill="#401A49"/>
<path d="M43.9348 35.4626C43.9348 36.0845 43.5159 36.5888 42.9996 36.5888C42.4833 36.5888 42.0645 36.0847 42.0645 35.4626C42.0645 34.8407 42.483 34.3364 42.9996 34.3364C43.5162 34.3364 43.9348 34.8407 43.9348 35.4626Z" fill="#401A49"/>
<path d="M51.7983 35.4626C51.7983 36.0845 51.3794 36.5888 50.8631 36.5888C50.3465 36.5888 49.9277 36.0847 49.9277 35.4626C49.9277 34.8407 50.3465 34.3364 50.8631 34.3364C51.3794 34.3364 51.7983 34.8407 51.7983 35.4626Z" fill="#401A49"/>
<path d="M48.2863 39.9453C48.0439 39.9453 47.7947 39.8527 47.5841 39.6808C47.4458 39.5684 47.3641 39.4499 47.3356 39.3181C47.3178 39.2377 47.3685 39.158 47.4496 39.1402C47.5322 39.1226 47.6101 39.1743 47.6273 39.2544C47.6409 39.3163 47.6901 39.3815 47.7727 39.449C47.9579 39.6004 48.1886 39.669 48.3874 39.6383C48.543 39.6129 48.7564 39.5167 48.8298 39.4058C48.8552 39.3677 48.8537 39.3432 48.8492 39.3259C48.4489 37.688 48.2845 36.0028 48.3618 34.3173C48.3651 34.2371 48.4315 34.1743 48.511 34.1743C48.5132 34.1743 48.5152 34.1745 48.5181 34.1745C48.6003 34.1783 48.6639 34.2482 48.6602 34.3306C48.5845 35.9878 48.7461 37.6448 49.14 39.2546C49.1658 39.3622 49.1449 39.4715 49.0794 39.5706C48.9481 39.769 48.6537 39.8974 48.436 39.9331C48.3867 39.9413 48.3366 39.9453 48.2863 39.9453Z" fill="#401A49"/>
<path d="M41.8253 33.4193C41.7881 33.4193 41.7507 33.4057 41.7222 33.3781C41.6623 33.3211 41.6601 33.2265 41.7173 33.1668C42.1679 32.6953 42.8259 32.4401 43.4758 32.4882C43.558 32.4942 43.6201 32.5657 43.6141 32.6481C43.6081 32.73 43.5515 32.7906 43.4542 32.7863C42.9005 32.746 42.324 32.9649 41.9335 33.373C41.9043 33.404 41.8649 33.4193 41.8253 33.4193Z" fill="#401A49"/>
<path d="M51.903 33.2029C51.8583 33.2029 51.814 33.1826 51.7841 33.1443C51.48 32.7484 50.896 32.6687 50.4794 32.7631C50.3983 32.7805 50.3184 32.7304 50.3006 32.6503C50.2823 32.5699 50.3331 32.4897 50.4135 32.4715C50.9358 32.3526 51.6354 32.4597 52.0217 32.9622C52.072 33.0277 52.0596 33.1216 51.9941 33.1719C51.9667 33.1926 51.9349 33.2029 51.903 33.2029Z" fill="#401A49"/>
<path d="M47.5009 41.582C47.3302 41.582 47.1563 41.549 46.992 41.48C46.5355 41.2885 46.1719 40.845 46.019 40.2937C45.9974 40.214 46.0439 40.1316 46.1232 40.1098C46.2053 40.0882 46.2857 40.1345 46.3073 40.2138C46.4353 40.6778 46.7346 41.0483 47.1075 41.2046C47.5143 41.3754 48.007 41.2556 48.2317 40.9343C48.2791 40.8659 48.3711 40.8495 48.4401 40.8975C48.5076 40.9448 48.5238 41.038 48.4768 41.1055C48.2633 41.411 47.8895 41.582 47.5009 41.582Z" fill="#401A49"/>
<path d="M45.2274 27.5928C44.7549 28.8009 44.0014 29.9311 42.9129 30.6309C41.8303 31.3365 40.4071 31.5578 39.2469 30.9958C39.3784 32.2995 38.9478 33.6572 38.0806 34.6438C37.2076 35.6306 36.0293 36.151 34.7136 36.1808C34.3908 35.5469 34.0617 34.907 33.625 34.3448C33.2423 33.8485 32.5104 33.3517 31.9482 33.0768C31.9244 32.8136 31.9102 32.5765 31.9102 32.3133C31.9102 26.536 36.707 21.5864 42.4843 21.5864C43.3753 21.5864 44.2929 21.6443 45.1183 21.8536C45.9136 23.4803 45.9034 25.8763 45.2274 27.5928Z" fill="#401A49"/>
<path d="M61.2267 110.339L38.9844 104.944L65.9604 100.058L106.729 103.163L61.2267 110.339Z" fill="#401A49"/>
<path opacity="0.35" d="M61.2267 110.339L38.9844 104.944L65.9604 100.058L106.729 103.163L61.2267 110.339Z" fill="#8F8FEF"/>
<path d="M53.3369 95.3754C53.3369 95.3754 61.8878 94.4591 63.2112 94.6629C64.5345 94.8664 70.1333 101.076 69.8279 101.89C69.5224 102.705 66.1632 104.842 65.3489 104.232C64.5345 103.621 61.0735 102.094 61.0735 102.094L52.0137 102.908L53.3369 95.3754Z" fill="#FF899A"/>
<path d="M38.9844 104.944L40.5113 107.387L61.2777 112.375L105.253 105.148L106.729 103.137L61.2777 109.525L38.9844 104.944Z" fill="#401A49"/>
<path d="M67.7924 66.2108L61.2266 110.339L106.729 103.163L113.906 61.9863L67.7924 66.2108Z" fill="#401A49"/>
<ellipse cx="90.6957" cy="85.6028" rx="5.34417" ry="5.19164" fill="#FFE5D2"/>
<path d="M56.3923 103.927C56.3923 103.927 50.4231 105.166 43.1592 105.802C43.0042 105.813 42.8493 105.83 42.6945 105.847C41.7097 105.924 40.6973 105.996 39.6796 106.051C39.4418 106.062 39.1984 106.073 38.9604 106.084C37.1734 106.167 35.3589 106.195 33.5886 106.151C28.6982 103.65 24.2834 100.358 20.505 96.4528C18.6739 94.5609 16.9919 92.5194 15.4763 90.3563C13.9549 80.5532 14.453 70.1305 14.453 70.1305L18.9339 63.7188C18.9339 63.7188 23.4095 64.0229 27.0773 69.0075C29.1685 71.8621 29.9983 78.8161 30.3303 84.2431C30.4133 85.6814 30.4632 87.0147 30.4964 88.1378C30.5516 90.1735 30.5351 91.507 30.5351 91.507L30.7564 91.5014L31.0552 91.4903L55.8837 90.7931L55.9225 91.8L55.9336 92.071V92.1264L55.9392 92.2315L55.9447 92.3698V92.4141L56.0498 95.1026L56.1273 97.0279L56.3099 101.808L56.3375 102.521L56.3923 103.927Z" fill="#8F8FEF"/>
<path d="M56.5411 103.922C56.5411 103.999 56.4914 104.06 56.4193 104.071C56.3309 104.088 50.1901 105.155 43.6732 105.908C43.5127 105.93 43.3523 105.946 43.1865 105.963C42.069 106.09 40.9403 106.212 39.8395 106.306C38.2242 106.455 36.6584 106.566 35.2257 106.621C35.0099 106.627 34.7942 106.632 34.5784 106.643C34.3738 106.549 34.1745 106.45 33.981 106.35C34.3849 106.344 34.7997 106.339 35.2148 106.322C36.3875 106.278 37.6488 106.195 38.96 106.084C39.1923 106.068 39.4247 106.046 39.6625 106.024C40.5422 105.946 41.444 105.858 42.3402 105.758C42.4673 105.747 42.6002 105.73 42.7329 105.714C49.0563 105.017 55.2855 103.965 56.2425 103.8L56.2202 102.533L56.2091 101.825L56.1261 97.0282L56.0929 95.0975L56.043 92.4087V92.37H30.9438C30.9162 92.37 30.8939 92.3644 30.8719 92.348C30.8276 92.3259 30.7944 92.2816 30.7944 92.2264C30.7944 92.2153 30.7888 92.1324 30.7832 91.9775C30.7777 91.8557 30.7666 91.7009 30.7556 91.5016C30.7169 90.7936 30.6338 89.5986 30.4956 88.138C30.0696 83.751 29.0904 76.9298 26.9494 73.3615C23.6576 67.8791 19.2375 66.5182 19.1932 66.5071C19.1157 66.485 19.0714 66.402 19.0936 66.3191C19.1159 66.2417 19.1987 66.1974 19.2818 66.2196C19.3261 66.2308 23.8513 67.6248 27.2038 73.2068C28.8081 75.8788 29.7653 80.3268 30.3295 84.2435C30.7775 87.4023 30.9823 90.2127 31.0542 91.4907C31.0709 91.7232 31.0818 91.9002 31.0818 92.0218C31.0874 92.0438 31.0874 92.0549 31.0874 92.0716H56.1871C56.1926 92.0716 56.1982 92.0716 56.2035 92.0772C56.281 92.0828 56.3362 92.1436 56.3362 92.2155V92.2431L56.3861 95.0701L56.5023 101.775L56.519 102.505L56.5411 103.922Z" fill="#401A49"/>
<path d="M28.6124 95.5157C28.5866 95.5157 28.5601 95.509 28.5363 95.4945C28.465 95.4525 28.4417 95.3609 28.484 95.2897C29.1766 94.1223 29.9615 92.9928 30.8167 91.9334C30.8675 91.8697 30.9626 91.859 31.0269 91.9109C31.0913 91.9628 31.101 92.057 31.0489 92.1213C30.2029 93.1698 29.426 94.2869 28.7411 95.442C28.7131 95.4894 28.6634 95.5157 28.6124 95.5157Z" fill="#401A49"/>
<path opacity="0.16" d="M104.322 49.8999C102.392 56.7986 96.0571 61.8549 88.5445 61.8549C79.4938 61.8549 72.1582 54.5193 72.1582 45.4686C72.1582 36.4235 79.4938 29.0879 88.5445 29.0879C90.5473 29.0879 92.4668 29.4475 94.2371 30.1059C98.9728 35.7651 102.48 42.5033 104.322 49.8999Z" fill="#FFA766"/>
<path d="M100.268 43.6233C100.268 37.7142 95.4776 32.9238 89.5686 32.9238C83.6593 32.9238 78.8691 37.7142 78.8691 43.6233C78.8691 48.9666 82.7901 53.382 87.9089 54.1811V58.4189H91.7226V54.1057C96.5992 53.1088 100.268 48.7944 100.268 43.6233Z" fill="#FFA766"/>
<path fill-rule="evenodd" clip-rule="evenodd" d="M90.8855 55.3036C90.7911 56.2082 90.9194 56.847 91.2783 57.2556L91.3827 57.1648C91.0505 56.7865 90.9332 56.1824 91.0234 55.3185C91.1158 54.4388 91.3153 53.6108 91.6163 52.8575C91.9085 52.1261 92.3082 51.4401 92.6948 50.7764L92.7008 50.7661L92.7223 50.7292C92.9281 50.3753 93.1404 50.01 93.3347 49.6406C94.0437 48.2893 94.3376 47.1139 94.2323 46.0474C94.1786 45.5037 94.0161 44.9666 93.7629 44.4941C93.5374 44.0747 93.2686 43.7589 92.9633 43.5559C92.197 43.0462 91.0817 43.2395 90.3674 44.0052C90.1839 44.2011 90.0234 44.4314 89.888 44.6907C89.8861 44.6869 89.8841 44.6831 89.8822 44.6792C89.8705 44.6563 89.8589 44.6333 89.8468 44.6106C89.4735 43.9001 88.9159 43.39 88.3174 43.211C87.95 43.101 87.5292 43.1014 87.1015 43.213C86.1721 43.4543 85.398 44.1938 85.1292 45.0971C84.8932 45.8893 85.0017 46.8576 85.4512 47.9745C85.8433 48.9495 86.3973 49.9073 87.1937 50.989C87.2777 51.1031 87.3635 51.2171 87.449 51.3308L87.4562 51.3403L87.4585 51.3433C87.9182 51.9556 88.3934 52.5884 88.6815 53.3182C89.0858 54.3433 89.1404 55.587 88.844 57.0149L88.9794 57.043C89.2815 55.5881 89.2241 54.3179 88.8095 53.2676C88.5153 52.5214 88.035 51.8815 87.5704 51.2626L87.5664 51.2573C87.5482 51.2331 87.53 51.2088 87.5119 51.1846C87.4425 51.0922 87.3731 50.9999 87.305 50.9073C86.5159 49.8352 85.9673 48.8869 85.5792 47.923C85.1417 46.8358 85.0348 45.8984 85.2615 45.1367C85.5171 44.2788 86.2528 43.5761 87.1358 43.347C87.5401 43.2417 87.934 43.241 88.2778 43.3435C88.8409 43.512 89.3681 43.9974 89.7244 44.6749C89.7547 44.7319 89.7832 44.7898 89.8103 44.8482C89.5578 45.3921 89.4071 46.0485 89.3744 46.7726C89.3425 47.4753 89.4358 47.9956 89.6676 48.4102C89.6988 48.4654 89.7941 48.634 89.9515 48.6529C90.055 48.6629 90.1561 48.6146 90.2541 48.5033C90.6682 48.0373 90.5936 47.2891 90.4832 46.6895C90.3692 46.0768 90.2265 45.4349 89.9629 44.8488C90.102 44.5621 90.2715 44.3098 90.4683 44.0994C91.1378 43.3831 92.1776 43.1987 92.8861 43.671C93.1726 43.8614 93.4262 44.1604 93.6409 44.5594C93.8858 45.016 94.0426 45.5351 94.0947 46.0607C94.1966 47.0999 93.9081 48.2497 93.2116 49.5765C93.0128 49.9559 92.7935 50.3324 92.5808 50.6964C92.1896 51.3673 91.7853 52.0615 91.4878 52.8056C91.1819 53.5709 90.9793 54.4114 90.8855 55.3036ZM89.5129 46.7786C89.542 46.1213 89.6707 45.523 89.8858 45.0183C90.1125 45.5609 90.2421 46.15 90.3469 46.7147C90.452 47.2831 90.5251 47.9898 90.151 48.4113C90.1051 48.4632 90.0348 48.5215 89.9682 48.5151C89.9087 48.5079 89.85 48.4512 89.7885 48.3418C89.5696 47.9513 89.4821 47.4546 89.5129 46.7786Z" fill="#FFF5EE"/>
<path d="M87.8032 56.6179L91.7934 56.5474L91.9123 59.697C91.9243 60.0177 91.662 60.2815 91.3411 60.2708L88.2186 60.1675C87.9118 60.1573 87.6718 59.8992 87.684 59.5924L87.8032 56.6179Z" fill="#8F8FEF"/>
<path d="M88.4512 60.0315L88.5302 60.6438C88.5658 60.9197 88.8007 61.1263 89.0788 61.1263H90.6771C90.9264 61.1263 91.1451 60.9593 91.2108 60.7186L91.4174 59.9609L88.4512 60.0315Z" fill="#8F8FEF"/>
<path d="M96.3154 40.6687C96.5211 40.8473 96.7752 41.0114 97.0455 40.9771C97.2452 40.9517 97.4164 40.8201 97.5489 40.6685C97.9105 40.2546 98.0425 39.6728 97.984 39.1264C97.8847 38.2028 96.7436 35.9772 95.4686 36.7814C94.1859 37.5905 95.541 39.9961 96.3154 40.6687Z" fill="#FFF5EE"/>
<path d="M96.8373 43.1132C96.8612 43.2898 96.913 43.4661 97.0152 43.6122C97.2541 43.9528 97.7582 44.0575 98.1316 43.8736C98.9074 43.4917 98.8484 42.3063 98.1517 41.8739C97.3281 41.3629 96.7367 42.3704 96.8373 43.1132Z" fill="#FFF5EE"/>
<rect x="66.8887" y="8.08789" width="27.967" height="22.223" fill="#FFF5EE"/>
<path d="M67.642 24.0957L59.8262 29.1807L69.0543 27.2031L67.642 24.0957Z" fill="#FFF5EE"/>
<ellipse cx="80.5847" cy="19.2491" rx="6.82681" ry="6.82682" transform="rotate(-82.0271 80.5847 19.2491)" fill="#FFD2A7"/>
<path fill-rule="evenodd" clip-rule="evenodd" d="M74.2539 19.2467C74.2539 22.7379 77.0941 25.5783 80.5855 25.5783C84.0768 25.5783 86.9174 22.7379 86.9174 19.2467C86.9174 15.7554 84.0768 12.915 80.5855 12.915C77.0943 12.915 74.2539 15.7552 74.2539 19.2467ZM74.3595 19.2467C74.3595 15.8136 77.1524 13.0206 80.5856 13.0206C84.0187 13.0206 86.8119 15.8133 86.8119 19.2467C86.8119 22.68 84.0187 25.4728 80.5856 25.4728C77.1524 25.4728 74.3595 22.6798 74.3595 19.2467Z" fill="#FFF5EE"/>
<path fill-rule="evenodd" clip-rule="evenodd" d="M81.0577 21.8605V22.5305H80.7077V21.8679C79.8887 21.8305 79.2778 21.4506 79.0469 20.8103L79.3895 20.6165C79.561 21.138 80.0152 21.4506 80.7077 21.4878V19.2762C79.948 19.0081 79.2929 18.7324 79.2929 17.8463C79.2929 17.0717 79.9183 16.5504 80.7077 16.4985V15.8281H81.0577V16.4985C81.6461 16.5653 82.1449 16.8784 82.3758 17.4366L82.0407 17.6229C81.8695 17.1983 81.5342 16.9452 81.0574 16.8857V19.0007C81.8171 19.2688 82.5023 19.5665 82.5023 20.4529C82.5023 21.2346 81.9067 21.7784 81.0577 21.8605ZM80.7074 18.8743V16.8784C80.0969 16.9303 79.6872 17.3253 79.6872 17.8465C79.6872 18.4347 80.1192 18.6581 80.7074 18.8743ZM81.0577 19.3953C81.6682 19.6115 82.1004 19.8571 82.1004 20.4529C82.1004 20.9888 81.7279 21.3987 81.0577 21.4729V19.3953Z" fill="white"/>
<rect x="26.3965" y="73.1089" width="35.5943" height="12.9948" fill="#FFF5EE"/>
<path d="M61.0497 83.3257L67.1705 83.9848L60.8613 80.7832L61.0497 83.3257Z" fill="#FFF5EE"/>
<rect x="31.1992" y="76.0752" width="25.5187" height="0.988586" fill="#401A49"/>
<rect x="31.1992" y="78.4292" width="25.5187" height="0.941605" fill="#401A49"/>
<rect x="31.1992" y="80.7837" width="17.8912" height="0.988815" fill="#401A49"/>
<path d="M100.691 57.9092C97.192 57.9114 94.3571 60.7498 94.3594 64.2491C94.3605 66.053 95.1193 67.6764 96.3299 68.8295L95.0612 71.4867L97.9858 69.9657C98.8094 70.3565 99.7269 70.5816 100.699 70.5809C104.198 70.5787 107.033 67.7403 107.031 64.241C107.029 60.7418 104.19 57.907 100.691 57.9092Z" fill="#F05D6A"/>
<path fill-rule="evenodd" clip-rule="evenodd" d="M100.484 67.6643C100.498 67.677 100.515 67.6819 100.533 67.6819C100.546 67.6819 100.56 67.6795 100.572 67.6753C100.589 67.6695 100.605 67.655 100.615 67.6379C100.644 67.6151 100.697 67.5773 100.771 67.5254C100.781 67.5179 100.792 67.5102 100.803 67.5023C103.723 65.4347 104.774 63.6949 103.927 62.3302C103.712 61.9838 103.424 61.7851 103.069 61.7402C102.217 61.6293 101.213 62.4658 100.891 62.759C100.544 62.3153 99.7705 61.4556 98.9788 61.4238C98.633 61.4098 98.3184 61.5551 98.0505 61.8557C97.0179 63.0135 97.7764 64.9043 100.305 67.4758L100.311 67.4819C100.38 67.552 100.43 67.6028 100.456 67.6316C100.462 67.6445 100.472 67.6557 100.484 67.6643ZM98.1777 61.9688C98.4001 61.7192 98.6544 61.5932 98.9347 61.5932C98.9472 61.5932 98.9596 61.5934 98.9719 61.5939C99.7387 61.6246 100.514 62.5428 100.812 62.9361C100.827 62.9554 100.849 62.9677 100.873 62.9697C100.897 62.9679 100.921 62.9628 100.939 62.9463C101.141 62.7539 102.195 61.7972 103.047 61.9087C103.348 61.947 103.595 62.1189 103.782 62.4195C104.573 63.694 103.537 65.3572 100.705 67.3631C100.696 67.3689 100.688 67.3745 100.681 67.38C100.623 67.421 100.578 67.4532 100.545 67.4778C100.537 67.4703 100.53 67.4623 100.521 67.4537C100.495 67.4265 100.463 67.3938 100.426 67.3564C97.3692 64.2477 97.5162 62.7107 98.1777 61.9688Z" fill="#401A49"/>
<path d="M74.2053 53.6202C72.3751 50.4461 68.3181 49.3566 65.1437 51.1871C61.9695 53.0173 60.8801 57.0743 62.7105 60.2485C64.1362 62.7208 66.9122 63.9205 69.5703 63.4685L71.7356 65.6253L71.3468 62.8989C71.4893 62.8297 71.6325 62.762 71.7719 62.6816C74.9463 60.8514 76.0357 56.7944 74.2053 53.6202Z" fill="#FFF5EE"/>
<path fill-rule="evenodd" clip-rule="evenodd" d="M67.1867 60.2783C67.4033 60.2894 68.5573 60.3453 69.6252 60.3453C70.4833 60.3453 71.2855 60.309 71.5004 60.1841C72.0432 59.8681 71.8911 59.0483 71.841 58.7789C71.815 58.6382 71.9036 58.3868 71.9978 58.1209L72.0004 58.1136C72.0918 57.8549 72.1861 57.5879 72.2051 57.3468C72.2351 56.9663 71.9892 56.6143 71.8262 56.3809L71.8252 56.3796C71.77 56.3007 71.7179 56.2262 71.7043 56.1874C71.6907 56.1499 71.725 55.9982 71.7513 55.8821L71.7538 55.871L71.754 55.87C71.829 55.5404 71.9223 55.1302 71.7226 54.8938C71.4538 54.5741 69.8211 54.9154 69.3346 55.0263C69.1329 54.4053 68.3625 52.1732 67.7832 52.352C67.2667 52.5113 67.2795 53.6106 67.2888 54.4142L67.2889 54.4157C67.2909 54.5796 67.2924 54.7277 67.2893 54.847C67.2716 55.461 66.643 55.8827 66.6259 55.8942L66.6256 55.8944C66.5991 55.9115 66.5844 55.9425 66.5886 55.9739L67.109 60.2059C67.1136 60.2457 67.1466 60.2762 67.1867 60.2783ZM71.4169 60.0416C71.0526 60.2524 68.3614 60.17 67.2644 60.1168L66.758 56.0031C66.915 55.8893 67.4369 55.4653 67.4536 54.8517C67.4572 54.7304 67.4556 54.5801 67.4536 54.414C67.4458 53.7476 67.4329 52.6327 67.8319 52.5098C68.1617 52.4012 68.8314 53.9929 69.2004 55.1487C69.2135 55.1899 69.2558 55.212 69.2979 55.2042C70.1544 55.0038 71.4342 54.809 71.5963 55.0004C71.7432 55.1742 71.6564 55.5551 71.5929 55.8335L71.5928 55.8343C71.5454 56.0411 71.5204 56.1623 71.548 56.2422C71.5694 56.3025 71.6224 56.3785 71.6896 56.4742C71.8397 56.6884 72.0659 57.0119 72.0403 57.3339C72.0227 57.5554 71.931 57.8148 71.8419 58.066C71.7355 58.3659 71.644 58.6248 71.6783 58.8092C71.7233 59.0505 71.8597 59.7842 71.4169 60.0416Z" fill="#401A49"/>
<path d="M66.6706 55.9639L64.6895 56.1716L65.1308 60.3802L67.1912 60.1956L66.6706 55.9639Z" fill="#401A49"/>
</svg>
